<svg fill="currentColor" xmlns="http://www.w3.org/2000/svg" width="489.01" height="496.4" viewBox="0 0 489.01 496.4">
  <g>
    <path d="M192.27,319.68h-61.81v178.75h69.51v-178.75h-7.7ZM192.27,443.29v46.83h-54.11v-163.44h54.11v116.61Z"/>
    <path d="M357.3,80.51c-13.32-29.59-58.34-50.25-109.47-50.25h-.02c-21.09.01-42.07,3.42-62.38,10.16-22.5,7.46-43.6,18.85-62.74,33.86-13.5,10.59-49.36,38.72-78.76,83.6-16.53,25.23-28.56,52.05-35.77,79.72-8.69,33.42-10.45,68.51-5.22,104.29,5.23,35.64,25.04,64.83,57.32,84.42,19.7,11.95,43.92,20.03,70.19,23.67v-7.07c-24.7-3.55-47.42-11.2-65.91-22.41-30.39-18.44-49.05-45.94-53.97-79.53-9.41-64.26,4.04-124.65,39.96-179.5,28.77-43.91,63.94-71.49,77.18-81.88,18.42-14.45,38.72-25.42,60.34-32.59,19.45-6.45,39.55-9.72,59.74-9.73h.02c23.58,0,45.96,4.48,64.71,12.95,18.46,8.34,31.83,20.04,37.64,32.95,7.18,15.95,2.66,32.3-12.72,46.05-35.34,31.58-51.8,50.42-56.83,65.01-4.69,13.62.41,24.86,8.85,43.49,8.82,19.51,20.93,46.23,27.66,89.63,4.07,26.25-3.87,50.69-23,70.69-21.16,22.13-55.44,37.87-94.17,44.14v7.11c13.51-2.1,26.64-5.31,38.99-9.59,25.01-8.67,46.1-21.48,61-37.06,20.62-21.57,29.2-47.94,24.8-76.26-6.87-44.27-19.18-71.46-28.17-91.31-8.87-19.59-12.32-27.96-8.61-38.74,4.57-13.23,20.97-31.8,54.88-62.11,17.51-15.64,22.76-35.21,14.45-53.69Z"/>
  </g>
  <g>
    <path d="M207.11,48.96v66.04h-13.2v-62.46c-6.01,1.87-12.03,4.08-18.04,6.66.04,1.07.07,2.17.07,3.28v67.33h-13.2v-64.36c-10.16,5.32-20.2,11.75-29.98,19.42C105.53,106.23-3.43,192.25,18.21,340.04c8.78,59.92,61.58,90.34,119.95,96.82v-110.18h54.11v109.54c67.47-8.91,126.57-47.76,117.24-107.9-19.84-127.87-86.58-106.56,22.55-204.1,46.81-41.84-33.95-96.36-124.95-75.26Z"/>
    <path d="M162.73,65.46v-2.98c0-14.55-4.58-23.03-8.42-27.58-1.96-2.31-4.18-4.16-6.58-5.51-3-1.68-6.29-2.57-9.67-2.57-1.11,0-2.23.1-3.36.3-10.72,1.92-21.12,13.17-21.12,35.36h-13.2c0-32.75,19.53-47.66,37.68-47.66.95,0,1.9.05,2.85.13,4.5.38,9,1.67,13.23,3.91,11.51,6.1,20.84,19.25,21.72,40.34-4.39,1.89-8.77,3.97-13.13,6.26Z"/>
    <path d="M207.11,47.66v1.3c-4.38,1.01-8.79,2.2-13.2,3.58v-4.88c0-24.5-12.78-35.66-24.67-35.66-5.26,0-10.68,2.22-15.1,6.86-4.22-2.24-8.72-3.53-13.23-3.91.55-.75,1.11-1.49,1.71-2.2C149.42,4.65,159.12,0,169.24,0,187.48,0,207.11,14.91,207.11,47.66Z"/>
    <path d="M147.74,29.39c-1.86,4.97-2.98,11.03-2.98,18.27h-13.2c0-7.51,1.08-14.42,3.16-20.54,1.12-.2,2.24-.3,3.36-.3,3.38,0,6.67.89,9.67,2.57Z"/>
  </g>
  <path d="M419.27,206.54h-102.94c-5.8,0-10.5-4.7-10.5-10.5s4.7-10.5,10.5-10.5h92.03l32.12-45.72c3.33-4.75,9.88-5.89,14.63-2.56,4.75,3.33,5.89,9.88,2.56,14.63l-38.4,54.65Z"/>
  <path d="M448.71,254.06h-102.94c-5.8,0-10.5-4.7-10.5-10.5s4.7-10.5,10.5-10.5h92.03l32.12-45.72c3.33-4.74,9.88-5.89,14.63-2.56,4.75,3.33,5.89,9.88,2.56,14.63l-38.4,54.65Z"/>
</svg>