<svg fill="currentColor" xmlns="http://www.w3.org/2000/svg" width="411.61" height="335.78" viewBox="0 0 411.61 335.78">
  <rect x="205.81" y="71.72" width="201.55" height="30.63" rx="7.33" ry="7.33"/>
  <rect x="205.81" y="37.21" width="201.55" height="30.63" rx="7.33" ry="7.33"/>
  <path d="M402.29,106.24H9.32c-5.15,0-9.32,4.44-9.32,9.92v186.82c0,18.11,13.78,32.79,30.79,32.79h350.03c17,0,30.79-14.68,30.79-32.79v-56.52h0V116.16c0-5.48-4.17-9.92-9.32-9.92ZM45.58,287.45c0,2.5-1.9,4.53-4.25,4.53s-4.25-2.03-4.25-4.53v-147.56c0-2.5,1.9-4.53,4.25-4.53s4.25,2.03,4.25,4.53v147.56ZM86.7,287.45c0,2.5-1.9,4.53-4.25,4.53s-4.25-2.03-4.25-4.53v-147.56c0-2.5,1.9-4.53,4.25-4.53s4.25,2.03,4.25,4.53v147.56ZM127.82,287.45c0,2.5-1.91,4.53-4.25,4.53s-4.25-2.03-4.25-4.53v-147.56c0-2.5,1.91-4.53,4.25-4.53s4.25,2.03,4.25,4.53v147.56ZM205.81,309.36c-26.47,0-45.37-18.9-45.37-37.81,0-7.56,3.78-15.12,15.12-22.69-7.56,18.9,0,30.25,11.35,30.25s18.9-11.34,18.9-18.9c0-18.9-22.69-22.69-22.69-45.37h0c0-12.1,7.56-22.69,22.69-26.47-7.56,7.56-11.34,15.12-3.78,26.47,10.49,15.73,49.33,26.94,49.16,60.5,0,22.69-18.9,34.03-45.37,34.03ZM251.18,156.6c0,2.98-2.37,5.4-5.28,5.4h-80.18c-2.92,0-5.28-2.42-5.28-5.4v-15.05c0-2.98,2.37-5.4,5.28-5.4h80.18c2.92,0,5.28,2.42,5.28,5.4v15.05ZM292.3,287.45c0,2.5-1.9,4.53-4.25,4.53s-4.25-2.03-4.25-4.53v-147.56c0-2.5,1.9-4.53,4.25-4.53s4.25,2.03,4.25,4.53v147.56ZM333.42,287.45c0,2.5-1.9,4.53-4.25,4.53s-4.25-2.03-4.25-4.53v-147.56c0-2.5,1.9-4.53,4.25-4.53s4.25,2.03,4.25,4.53v147.56ZM374.54,287.45c0,2.5-1.9,4.53-4.25,4.53s-4.25-2.03-4.25-4.53v-147.56c0-2.5,1.9-4.53,4.25-4.53s4.25,2.03,4.25,4.53v147.56Z"/>
  <path d="M47.58,97.33c-.62,0-1.25-.19-1.79-.59-1.33-.99-1.61-2.87-.62-4.2,9.8-13.2,4.65-30.11-1.4-41.97-9.06-17.78-6.99-35.39,5.84-49.59,1.11-1.23,3.01-1.33,4.24-.21,1.23,1.11,1.33,3.01.21,4.24-11.2,12.4-12.91,27.21-4.94,42.84,9.78,19.17,10.08,35.86.87,48.27-.59.79-1.49,1.21-2.41,1.21Z"/>
  <path d="M94.73,97.33c-.62,0-1.25-.19-1.79-.59-1.33-.99-1.61-2.87-.62-4.2,9.8-13.2,4.65-30.11-1.4-41.97-9.06-17.78-6.99-35.39,5.83-49.59,1.11-1.23,3.01-1.33,4.24-.21,1.23,1.11,1.33,3.01.22,4.24-11.2,12.4-12.91,27.21-4.94,42.84,9.78,19.17,10.08,35.86.87,48.27-.59.79-1.49,1.21-2.41,1.21Z"/>
  <path d="M141.88,97.33c-.62,0-1.25-.19-1.79-.59-1.33-.99-1.61-2.87-.62-4.2,9.8-13.2,4.65-30.11-1.4-41.97-9.07-17.78-6.99-35.39,5.84-49.59,1.11-1.23,3.01-1.33,4.24-.21,1.23,1.11,1.33,3.01.21,4.24-11.2,12.4-12.91,27.21-4.94,42.84,9.78,19.17,10.08,35.86.87,48.27-.59.79-1.49,1.21-2.41,1.21Z"/>
</svg>