<svg id="icon-skimmer" width="800" height="800" viewBox="0 0 800 800" fill="currentColor">
  <path d="M667.62,367.79l-77.28-23.82c-11.51,33.48-24.81,64.14-38.83,90.37l76.67,21.8c14.4-25.3,27.99-55.35,39.44-88.36Z" fill="none"/>
  <path d="M608,159.28c-.63-4.24-1.5-7.99-2.47-11.51h-.01s-69.55-25.88-69.55-25.88c.72,10.23.65,21.77-.35,34.78-1.02,13.19-3.01,27.79-5.74,43.31l77.1,25.62c3.31-26.24,3.68-49.03,1.04-66.32Z" fill="none"/>
  <path d="M524.43,122.71c-.14-1.9-.37-3.57-.58-5.33l-72.89-27.13c1.01,11.38.77,24.88-.6,40.21-1.14,12.56-3.14,26.44-5.79,41.16l74.16,24.65c5.07-29.37,7.06-54.73,5.7-73.56Z" fill="none"/>
  <path d="M582.83,329.76c10.68-32.87,18.21-64.5,22.52-92.7l-77.56-25.79c-5.64,28.8-14.03,60.66-24.94,93.84l79.98,24.65Z" fill="none"/>
  <path d="M491.78,301.69c11-33.37,19.33-65.4,24.87-94.11l-74.17-24.67c-5.85,29.24-14.5,61.77-25.67,95.67l74.98,23.11Z" fill="none"/>
  <path d="M378.49,149.64l54.93,18.26c5.07-28.5,7.23-53.08,6.28-71.42-.19-3.96-.6-7.51-1.08-10.83h.01s-55.86-20.8-55.86-20.8c1.74,12.42,1.95,26.91.82,43.44-.89,12.68-2.66,26.63-5.1,41.35Z" fill="none"/>
  <path d="M579.21,340.53h.01s-79.96-24.65-79.96-24.65c-11.74,34.15-24.78,65.58-38.19,92.72l79.03,22.48c14.05-26.01,27.52-56.82,39.11-90.56Z" fill="none"/>
  <path d="M618.2,229.34l75.88,25.22c.19-1.77.42-3.59.59-5.33,2.64-28.05,1.42-52.07-3.11-69.43h0l-72.88-27.12c2.15,11.18,3,24.24,2.67,38.97-.28,11.6-1.39,24.3-3.14,37.69Z" fill="none"/>
  <path d="M374.48,383.99l75.28,21.41c13.43-26.99,26.59-58.6,38.38-92.94l-74.92-23.1c-11.99,34.9-25.23,67.02-38.73,94.62Z" fill="none"/>
  <path d="M431.3,179.19l-54.76-18.21c-5.57,29.82-14.14,62.9-25.46,97.33l54.62,16.84c11.25-34.11,19.85-66.81,25.6-95.96Z" fill="none"/>
  <path d="M671.28,357.01c10.46-32.1,17.59-63.07,21.41-90.92l-76.07-25.29c-4.48,28.33-12.12,59.77-22.71,92.37l77.38,23.84Z" fill="none"/>
  <path d="M622.24,466.27l-76.35-21.71c-14.05,24.76-28.62,45.01-42.68,59.05-.42.41-.83.73-1.25,1.14h0s74.25,18.32,74.25,18.32c8.57-6.98,17.67-16.57,26.76-28.43,6.45-8.38,12.9-17.94,19.26-28.38Z" fill="none"/>
  <path d="M682.34,360.42l58.25,17.96c10.8-33.55,16.39-64.18,17.98-90.38h.01s-54.65-18.17-54.65-18.17c-4.01,27.98-11.23,58.76-21.6,90.59Z" fill="none"/>
  <path d="M678.68,371.19c-11.38,32.79-24.82,62.58-39.21,88.15l55.31,15.72c15.27-22.57,30.13-51.3,42.23-85.9h0l-58.34-17.98Z" fill="none"/>
  <path d="M742.09,199.71c-1.73-1.79-2.8-2.18-2.8-2.18l-.47-.15h0l-34.28-12.76c1.92,9.87,3.03,20.84,3.18,33.02.16,12.5-.7,26.21-2.36,40.67l53.73,17.88c.43-23.08-2.26-42.18-6.51-55.83-3.18-10.45-7.45-17.59-10.49-20.65Z" fill="none"/>
  <path d="M630.99,474.14c-13.47,21.74-27.41,39.51-41.24,52.25l35.49,8.75.49.15s1.11.3,3.61-.2c2.45-.47,6.09-1.73,10.4-4.04,8.66-4.58,19.84-13.25,31.54-25.88l-.02-.02c5.47-5.88,11.06-12.68,16.64-20.24l-54.24-15.42c-.89,1.49-1.75,3.18-2.65,4.65Z" fill="none"/>
  <path d="M402.05,285.93l-54.62-16.84c-12.15,35.38-25.83,67.94-39.93,95.86l55.6,15.81c13.54-27.45,26.9-59.72,38.95-94.83Z" fill="none"/>
  <path d="M357.91,391.1l-55.73-15.85c-13.83,26.04-27.86,47.52-41.48,62.95-1.81,2.04-3.62,3.85-5.41,5.69l57.98,14.31c8.21-8.24,17.39-20.24,26.91-35.59,5.82-9.37,11.77-20,17.73-31.52Z" fill="none"/>
  <path d="M444.45,415.71l-75.18-21.38c-13.36,26.08-26.82,47.59-39.38,62.74-1.29,1.55-2.55,2.87-3.82,4.29l75.92,18.73c7.37-7.89,15.34-18.46,23.49-31.25,6.25-9.79,12.62-20.98,18.96-33.14Z" fill="none"/>
  <path d="M208.07,380.33c21.89-33.62,45.33-83.33,64.45-140.27h0c12.56-37.38,21.75-73.21,27.33-104.64,3.59-20.15,5.65-38.48,6.26-54.14-33.05,30.49-65.02,81.33-85.59,142.7-20.7,61.38-25.71,120.49-17.48,163.72,1.68-2.42,3.35-4.75,5.04-7.37Z" fill="none"/>
  <path d="M534.42,441.29l-78.57-22.34c-13.9,26.79-27.98,48.85-41.22,64.25l73.95,18.24c8.57-7.35,17.86-17.74,27.27-30.92,6.2-8.65,12.4-18.51,18.57-29.23Z" fill="none"/>
  <path d="M792.78,243.62c-2.17-19.69-6.52-36.29-13.01-49.6-3.28-6.65-7.11-12.52-11.86-17.51-4.54-4.72-10.07-8.69-16.79-10.97l.02-.04L338.98,12.14l-.97-.33-22.21-6.85c-8.48-2.64-17.54-2.73-25.93-.84-14.77,3.36-27.7,11.83-40.08,23.18-18.5,17.15-36.06,41.62-52.65,71.57-16.54,29.95-31.91,65.37-44.93,104.09-19.82,59.04-30.61,114.74-30.88,158.98-.07,22.17,2.35,41.53,8.56,57.71,2.57,6.61,5.82,12.72,10.03,18.15L19.07,747.77c-7.23,18.55,1.94,39.46,20.5,46.7l7.39,2.88c18.55,7.23,39.46-1.94,46.7-20.5l120.13-308.11,402.06,99.16.02-.04c6.83,1.89,13.74,1.76,20.31.47,12.04-2.48,23.58-8.52,35.47-17.28,17.74-13.21,36.15-32.98,53.65-59.17,17.48-26.22,33.92-58.88,47.01-97.78,19.91-59.3,24.72-111.11,20.49-150.46ZM618.68,152.67l72.88,27.12h0c4.53,17.36,5.75,41.38,3.11,69.43-.17,1.74-.4,3.56-.59,5.33l-75.88-25.22c1.75-13.4,2.86-26.09,3.14-37.69.34-14.73-.52-27.8-2.67-38.97ZM692.68,266.09c-3.82,27.85-10.95,58.83-21.41,90.92l-77.38-23.84c10.59-32.61,18.23-64.04,22.71-92.37l76.07,25.29ZM499.26,315.89l79.96,24.64h-.01c-11.58,33.74-25.06,64.55-39.11,90.56l-79.03-22.48c13.42-27.14,26.46-58.57,38.19-92.72ZM449.76,405.4l-75.28-21.41c13.5-27.6,26.75-59.72,38.73-94.62l74.92,23.1c-11.78,34.33-24.95,65.95-38.38,92.94ZM590.34,343.97l77.28,23.82c-11.45,33-25.04,63.06-39.44,88.36l-76.67-21.8c14.02-26.23,27.32-56.89,38.83-90.37ZM535.61,156.66c1-13.01,1.07-24.55.35-34.78l69.55,25.88h.01c.97,3.51,1.84,7.27,2.47,11.51,2.64,17.29,2.28,40.08-1.04,66.32l-77.1-25.62c2.73-15.52,4.72-30.12,5.74-43.31ZM605.35,237.06c-4.32,28.2-11.84,59.83-22.52,92.7l-79.98-24.65c10.91-33.18,19.3-65.03,24.94-93.84l77.56,25.79ZM450.37,130.46c1.37-15.33,1.61-28.84.6-40.21l72.89,27.13c.21,1.77.44,3.43.58,5.33,1.36,18.83-.63,44.19-5.7,73.56l-74.16-24.65c2.65-14.72,4.66-28.6,5.79-41.16ZM516.65,207.58c-5.53,28.71-13.87,60.75-24.87,94.11l-74.98-23.11c11.17-33.9,19.82-66.43,25.67-95.67l74.17,24.67ZM382.77,64.86l55.86,20.79h-.01c.48,3.32.89,6.87,1.08,10.83.96,18.33-1.21,42.91-6.28,71.42l-54.93-18.26c2.44-14.72,4.2-28.66,5.1-41.35,1.13-16.52.92-31.02-.82-43.44ZM376.55,160.98l54.76,18.21c-5.74,29.15-14.34,61.85-25.6,95.96l-54.62-16.84c11.32-34.43,19.89-67.51,25.46-97.33ZM347.43,269.09l54.62,16.84c-12.04,35.11-25.41,67.38-38.95,94.83l-55.6-15.81c14.1-27.92,27.78-60.48,39.93-95.86ZM220.52,223.98c20.57-61.37,52.54-112.21,85.59-142.7-.6,15.66-2.67,33.99-6.26,54.14-5.58,31.43-14.77,67.26-27.33,104.64h0c-19.12,56.94-42.56,106.66-64.45,140.27-1.69,2.62-3.36,4.95-5.04,7.37-8.23-43.24-3.22-102.34,17.48-163.72ZM255.29,443.9c1.79-1.85,3.6-3.66,5.41-5.69,13.62-15.44,27.65-36.91,41.48-62.95l55.73,15.85c-5.96,11.52-11.91,22.15-17.73,31.52-9.51,15.36-18.7,27.35-26.91,35.59l-57.98-14.31ZM326.07,461.36c1.27-1.43,2.52-2.74,3.82-4.29,12.56-15.15,26.02-36.66,39.38-62.74l75.18,21.38c-6.34,12.16-12.72,23.35-18.96,33.14-8.15,12.79-16.12,23.36-23.49,31.25l-75.92-18.73ZM488.57,501.44l-73.95-18.24c13.23-15.39,27.32-37.46,41.22-64.25l78.57,22.34c-6.17,10.72-12.37,20.58-18.57,29.23-9.41,13.18-18.7,23.57-27.27,30.92ZM576.23,523.08l-74.25-18.31h0c.42-.42.83-.75,1.25-1.15,14.06-14.04,28.62-34.29,42.68-59.05l76.35,21.71c-6.36,10.44-12.81,20-19.26,28.38-9.09,11.85-18.18,21.45-26.76,28.43ZM671.25,505.15l.02.02c-11.69,12.64-22.88,21.3-31.54,25.88-4.3,2.3-7.95,3.57-10.4,4.04-2.51.5-3.6.21-3.61.2l-.49-.15-35.49-8.75c13.83-12.74,27.77-30.51,41.24-52.25.9-1.47,1.76-3.15,2.65-4.65l54.24,15.42c-5.58,7.55-11.17,14.35-16.64,20.24ZM694.79,475.07l-55.31-15.72c14.38-25.58,27.83-55.37,39.21-88.15l58.34,17.98h0c-12.1,34.6-26.96,63.33-42.23,85.9ZM758.58,288c-1.6,26.19-7.19,56.83-17.98,90.38l-58.25-17.96c10.37-31.82,17.58-62.61,21.6-90.59l54.65,18.17h-.01ZM759.09,276.18l-53.73-17.88c1.65-14.46,2.52-28.17,2.36-40.67-.15-12.19-1.27-23.15-3.18-33.02l34.28,12.76h0l.47.15s1.08.39,2.8,2.18c3.03,3.06,7.31,10.2,10.49,20.65,4.25,13.65,6.94,32.75,6.51,55.83Z"/>
</svg>