<svg id="icon-umbrella" width="800" height="800" viewBox="0 0 800 800" fill="currentColor">
  <path d="M72.04,189.97l141.69,51.59C262.56,128.42,333.35,41.34,406.6.54,273.56-6.25,144.65,51.82,61.74,155.67c-9.28,11.66-3.69,29.21,10.3,34.3ZM255.55,256.8l330.91,120.48c49.62-168.43,25.95-321.45-59.15-352.42-10.27-3.75-20.99-5.55-32.04-5.55-80.51.01-177.99,95.98-239.72,237.49h0ZM635.54,83.96c8.63,22.62,15.03,48.01,18.32,76.58,7.96,69.23-1.97,150.18-26.29,231.7l142.39,51.84c14,5.09,29.57-4.76,29.93-19.66,3.22-132.78-58.15-260.09-164.35-340.46h0Z"/>
  <rect x="271.62" y="311.58" width="80.05" height="501.62" rx="36.06" ry="36.06" transform="translate(225.56 -74.79) rotate(21.3)"/>
</svg>