<?xml version="1.0" encoding="UTF-8"?>
<svg id="uuid-a426bc5f-3575-4042-958b-6afc8de7274f" data-name="Layer 1" xmlns="http://www.w3.org/2000/svg" width="200" height="67.57" xmlns:xlink="http://www.w3.org/1999/xlink" viewBox="0 0 200 67.57">
  <defs>
    <linearGradient id="uuid-8417b1f6-f7fd-4add-b7b6-e485ecd689a7" x1="100" y1="-5.63" x2="100" y2="73.2" gradientUnits="userSpaceOnUse">
      <stop offset=".5" stop-color="#6bbede"/>
      <stop offset="1" stop-color="#9fdced"/>
    </linearGradient>
  </defs>
  <path d="M200-.05v5.2l-.37.26c-4.71.97-8.41-1.37-11.94-3.9-2.07-1.28-4.54-1.79-6.96-1.76-4.26.05-7.11,1.73-10.3,4.05-3.86,2.36-8.34,2.3-12.31.26l-3.66-2.41c-2.16-1.31-4.65-1.91-7.17-1.9-4.24.02-7.13,1.76-10.31,4.06-3.84,2.35-8.27,2.29-12.23.29l-3.73-2.46c-2.1-1.28-4.49-1.87-6.94-1.9-4.31-.05-7.25,1.68-10.48,4.02-1.74,1.1-3.69,1.68-5.74,1.79-4.32.22-7.04-1.66-10.27-3.91-2.1-1.27-4.51-1.88-6.96-1.9-4.32-.03-7.31,1.74-10.56,4.09-1.65,1.04-3.53,1.6-5.47,1.71-4.31.26-7.06-1.51-10.28-3.8-2.18-1.34-4.65-1.98-7.2-2-4.31-.03-7.26,1.77-10.5,4.09-1.83,1.15-3.94,1.71-6.09,1.73-4.09.05-6.69-1.75-9.76-3.89C18.65.38,16.25-.22,13.77-.25c-4.25-.06-7.19,1.61-10.36,3.94-.92.58-1.9,1.09-2.94,1.4-.07.02-.14,0-.23,0s-.16-.04-.24-.07V-.3c1.03-.2,1.95-.8,2.85-1.41,1.04-.69,2-1.4,3.09-2.01,2.25-1.27,4.69-1.85,7.29-1.89s5.29.43,7.67,1.71C24.48-1.98,25.68.12,30.1.2c2.13.04,4.08-.46,5.84-1.66l1.98-1.35c2.79-1.9,5.89-2.85,9.28-2.81,4.46.06,7.13,1.42,10.63,3.96,1.77,1.28,3.74,1.86,5.92,1.87s4.16-.67,5.98-1.91l2.11-1.43c2.56-1.73,5.48-2.47,8.57-2.49,3.36-.02,6.44.99,9.22,2.86l1.82,1.22c1.7,1.15,3.55,1.76,5.63,1.73,3.32-.04,4.76-.89,7.38-2.8,2.84-2.06,6.07-3.07,9.6-3.02,3.01.04,5.87.77,8.38,2.44l3.06,2.03c1.48.98,3.14,1.3,4.89,1.34,2.18.06,4.15-.52,5.95-1.74l2.38-1.6c2.52-1.7,5.4-2.46,8.45-2.48s6.16.74,8.77,2.48l2.94,1.96c2.8,1.87,7.57,1.84,10.4-.04l3.12-2.07c4.63-3.08,12-3.1,16.6-.08l3.44,2.27c2.13,1.4,5.17,1.51,7.53,1.06ZM192.47,10.15l-3.44-2.27c-4.6-3.03-11.97-3-16.6.08l-3.12,2.07c-2.83,1.88-7.61,1.9-10.4.04l-2.94-1.96c-2.61-1.74-5.61-2.51-8.77-2.48s-5.93.78-8.45,2.48l-2.38,1.6c-1.8,1.21-3.77,1.79-5.95,1.74-1.76-.05-3.42-.36-4.89-1.34l-3.06-2.03c-2.51-1.67-5.37-2.4-8.38-2.44-3.52-.05-6.76.96-9.6,3.02-2.62,1.91-4.06,2.76-7.38,2.8-2.07.02-3.93-.59-5.63-1.73l-1.82-1.22c-2.78-1.87-5.86-2.88-9.22-2.86-3.09.02-6.01.76-8.57,2.49l-2.11,1.43c-1.82,1.23-3.77,1.91-5.98,1.91s-4.16-.59-5.92-1.87c-3.5-2.54-6.17-3.9-10.63-3.96-3.39-.05-6.5.91-9.28,2.81l-1.98,1.35c-1.76,1.2-3.71,1.7-5.84,1.66-4.42-.07-5.62-2.18-9.2-4.11-2.37-1.28-4.97-1.76-7.67-1.71s-5.04.62-7.29,1.89c-1.09.62-2.04,1.32-3.09,2.01-.91.6-1.83,1.21-2.85,1.41v5.31c.08.03.16.06.24.07s.16.02.23,0c1.04-.31,2.02-.81,2.94-1.4,3.17-2.33,6.12-4,10.36-3.94,2.48.03,4.88.64,7,1.93,3.07,2.14,5.67,3.94,9.76,3.89,2.15-.03,4.26-.59,6.09-1.73,3.23-2.33,6.18-4.12,10.5-4.09,2.55.02,5.02.66,7.2,2,3.22,2.29,5.97,4.06,10.28,3.8,1.94-.12,3.82-.67,5.47-1.71,3.24-2.35,6.24-4.12,10.56-4.09,2.45.02,4.86.62,6.96,1.9,3.23,2.25,5.95,4.14,10.27,3.91,2.05-.11,4-.69,5.74-1.79,3.23-2.34,6.17-4.07,10.48-4.02,2.45.03,4.84.62,6.94,1.9l3.73,2.46c3.95,2,8.39,2.05,12.23-.29,3.18-2.3,6.07-4.04,10.31-4.06,2.52-.01,5,.58,7.17,1.9l3.66,2.41c3.97,2.05,8.44,2.11,12.31-.26,3.2-2.32,6.04-4.01,10.3-4.05,2.42-.03,4.88.48,6.96,1.76,3.54,2.53,7.23,4.87,11.94,3.9l.37-.26v-5.2c-2.36.46-5.41.35-7.53-1.06ZM192.47,21.41l-3.44-2.27c-4.6-3.03-11.97-3-16.6.08l-3.12,2.07c-2.83,1.88-7.61,1.9-10.4.04l-2.94-1.96c-2.61-1.74-5.61-2.51-8.77-2.48s-5.93.78-8.45,2.48l-2.38,1.6c-1.8,1.21-3.77,1.79-5.95,1.74-1.76-.05-3.42-.36-4.89-1.34l-3.06-2.03c-2.51-1.67-5.37-2.4-8.38-2.44-3.52-.05-6.76.96-9.6,3.02-2.62,1.91-4.06,2.76-7.38,2.8-2.07.02-3.93-.59-5.63-1.73l-1.82-1.22c-2.78-1.87-5.86-2.88-9.22-2.86-3.09.02-6.01.76-8.57,2.49l-2.11,1.43c-1.82,1.23-3.77,1.91-5.98,1.91s-4.16-.59-5.92-1.87c-3.5-2.54-6.17-3.9-10.63-3.96-3.39-.05-6.5.91-9.28,2.81l-1.98,1.35c-1.76,1.2-3.71,1.7-5.84,1.66-4.42-.07-5.62-2.18-9.2-4.11-2.37-1.28-4.97-1.76-7.67-1.71s-5.04.62-7.29,1.89c-1.09.62-2.04,1.32-3.09,2.01-.91.6-1.83,1.21-2.85,1.41v5.31c.08.03.16.06.24.07s.16.02.23,0c1.04-.31,2.02-.81,2.94-1.4,3.17-2.33,6.12-4,10.36-3.94,2.48.03,4.88.64,7,1.93,3.07,2.14,5.67,3.94,9.76,3.89,2.15-.03,4.26-.59,6.09-1.73,3.23-2.33,6.18-4.12,10.5-4.09,2.55.02,5.02.66,7.2,2,3.22,2.29,5.97,4.06,10.28,3.8,1.94-.12,3.82-.67,5.47-1.71,3.24-2.35,6.24-4.12,10.56-4.09,2.45.02,4.86.62,6.96,1.9,3.23,2.25,5.95,4.14,10.27,3.91,2.05-.11,4-.69,5.74-1.79,3.23-2.34,6.17-4.07,10.48-4.02,2.45.03,4.84.62,6.94,1.9l3.73,2.46c3.95,2,8.39,2.05,12.23-.29,3.18-2.3,6.07-4.04,10.31-4.06,2.52-.01,5,.58,7.17,1.9l3.66,2.41c3.97,2.05,8.44,2.11,12.31-.26,3.2-2.32,6.04-4.01,10.3-4.05,2.42-.03,4.88.48,6.96,1.76,3.54,2.53,7.23,4.87,11.94,3.9l.37-.26v-5.2c-2.36.46-5.41.35-7.53-1.06ZM192.47,43.94l-3.44-2.27c-4.6-3.03-11.97-3-16.6.08l-3.12,2.07c-2.83,1.88-7.61,1.9-10.4.04l-2.94-1.96c-2.61-1.74-5.61-2.51-8.77-2.48s-5.93.78-8.45,2.48l-2.38,1.6c-1.8,1.21-3.77,1.79-5.95,1.74-1.76-.05-3.42-.36-4.89-1.34l-3.06-2.03c-2.51-1.67-5.37-2.4-8.38-2.44-3.52-.05-6.76.96-9.6,3.02-2.62,1.91-4.06,2.76-7.38,2.8-2.07.02-3.93-.59-5.63-1.73l-1.82-1.22c-2.78-1.87-5.86-2.88-9.22-2.86-3.09.02-6.01.76-8.57,2.49l-2.11,1.43c-1.82,1.23-3.77,1.91-5.98,1.91s-4.16-.59-5.92-1.87c-3.5-2.54-6.17-3.9-10.63-3.96-3.39-.05-6.5.91-9.28,2.81l-1.98,1.35c-1.76,1.2-3.71,1.7-5.84,1.66-4.42-.07-5.62-2.18-9.2-4.11-2.37-1.28-4.97-1.76-7.67-1.71s-5.04.62-7.29,1.89c-1.09.62-2.04,1.32-3.09,2.01-.91.6-1.83,1.21-2.85,1.41v5.31c.08.03.16.06.24.07s.16.02.23,0c1.04-.31,2.02-.81,2.94-1.4,3.17-2.33,6.12-4,10.36-3.94,2.48.03,4.88.64,7,1.93,3.07,2.14,5.67,3.94,9.76,3.89,2.15-.03,4.26-.59,6.09-1.73,3.23-2.33,6.18-4.12,10.5-4.09,2.55.02,5.02.66,7.2,2,3.22,2.29,5.97,4.06,10.28,3.8,1.94-.12,3.82-.67,5.47-1.71,3.24-2.35,6.24-4.12,10.56-4.09,2.45.02,4.86.62,6.96,1.9,3.23,2.25,5.95,4.14,10.27,3.91,2.05-.11,4-.69,5.74-1.79,3.23-2.34,6.17-4.07,10.48-4.02,2.45.03,4.84.62,6.94,1.9l3.73,2.46c3.95,2,8.39,2.05,12.23-.29,3.18-2.3,6.07-4.04,10.31-4.06,2.52-.01,5,.58,7.17,1.9l3.66,2.41c3.97,2.05,8.44,2.11,12.31-.26,3.2-2.32,6.04-4.01,10.3-4.05,2.42-.03,4.88.48,6.96,1.76,3.54,2.53,7.23,4.87,11.94,3.9l.37-.26v-5.2c-2.36.46-5.41.35-7.53-1.06ZM192.47,55.2l-3.44-2.27c-4.6-3.03-11.97-3-16.6.08l-3.12,2.07c-2.83,1.88-7.61,1.9-10.4.04l-2.94-1.96c-2.61-1.74-5.61-2.51-8.77-2.48s-5.93.78-8.45,2.48l-2.38,1.6c-1.8,1.21-3.77,1.79-5.95,1.74-1.76-.05-3.42-.36-4.89-1.34l-3.06-2.03c-2.51-1.67-5.37-2.4-8.38-2.44-3.52-.05-6.76.96-9.6,3.02-2.62,1.91-4.06,2.76-7.38,2.8-2.07.02-3.93-.59-5.63-1.73l-1.82-1.22c-2.78-1.87-5.86-2.88-9.22-2.86-3.09.02-6.01.76-8.57,2.49l-2.11,1.43c-1.82,1.23-3.77,1.91-5.98,1.91s-4.16-.59-5.92-1.87c-3.5-2.54-6.17-3.9-10.63-3.96-3.39-.05-6.5.91-9.28,2.81l-1.98,1.35c-1.76,1.2-3.71,1.7-5.84,1.66-4.42-.07-5.62-2.18-9.2-4.11-2.37-1.28-4.97-1.76-7.67-1.71s-5.04.62-7.29,1.89c-1.09.62-2.04,1.32-3.09,2.01-.91.6-1.83,1.21-2.85,1.41v5.31c.08.03.16.06.24.07s.16.02.23,0c1.04-.31,2.02-.81,2.94-1.4,3.17-2.33,6.12-4,10.36-3.94,2.48.03,4.88.64,7,1.93,3.07,2.14,5.67,3.94,9.76,3.89,2.15-.03,4.26-.59,6.09-1.73,3.23-2.33,6.18-4.12,10.5-4.09,2.55.02,5.02.66,7.2,2,3.22,2.29,5.97,4.06,10.28,3.8,1.94-.12,3.82-.67,5.47-1.71,3.24-2.35,6.24-4.12,10.56-4.09,2.45.02,4.86.62,6.96,1.9,3.23,2.25,5.95,4.14,10.27,3.91,2.05-.11,4-.69,5.74-1.79,3.23-2.34,6.17-4.07,10.48-4.02,2.45.03,4.84.62,6.94,1.9l3.73,2.46c3.95,2,8.39,2.05,12.23-.29,3.18-2.3,6.07-4.04,10.31-4.06,2.52-.01,5,.58,7.17,1.9l3.66,2.41c3.97,2.05,8.44,2.11,12.31-.26,3.2-2.32,6.04-4.01,10.3-4.05,2.42-.03,4.88.48,6.96,1.76,3.54,2.53,7.23,4.87,11.94,3.9l.37-.26v-5.2c-2.36.46-5.41.35-7.53-1.06ZM192.47,66.46l-3.44-2.27c-4.6-3.03-11.97-3-16.6.08l-3.12,2.07c-2.83,1.88-7.61,1.9-10.4.04l-2.94-1.96c-2.61-1.74-5.61-2.51-8.77-2.48s-5.93.78-8.45,2.48l-2.38,1.6c-1.8,1.21-3.77,1.79-5.95,1.74-1.76-.05-3.42-.36-4.89-1.34l-3.06-2.03c-2.51-1.67-5.37-2.4-8.38-2.44-3.52-.05-6.76.96-9.6,3.02-2.62,1.91-4.06,2.76-7.38,2.8-2.07.02-3.93-.59-5.63-1.73l-1.82-1.22c-2.78-1.87-5.86-2.88-9.22-2.86-3.09.02-6.01.76-8.57,2.49l-2.11,1.43c-1.82,1.23-3.77,1.91-5.98,1.91s-4.16-.59-5.92-1.87c-3.5-2.54-6.17-3.9-10.63-3.96-3.39-.05-6.5.91-9.28,2.81l-1.98,1.35c-1.76,1.2-3.71,1.7-5.84,1.66-4.42-.07-5.62-2.18-9.2-4.11-2.37-1.28-4.97-1.76-7.67-1.71s-5.04.62-7.29,1.89c-1.09.62-2.04,1.32-3.09,2.01-.91.6-1.83,1.21-2.85,1.41v5.31c.08.03.16.06.24.07s.16.02.23,0c1.04-.31,2.02-.81,2.94-1.4,3.17-2.33,6.12-4,10.36-3.94,2.48.03,4.88.64,7,1.93,3.07,2.14,5.67,3.94,9.76,3.89,2.15-.03,4.26-.59,6.09-1.73,3.23-2.33,6.18-4.12,10.5-4.09,2.55.02,5.02.66,7.2,2,3.22,2.29,5.97,4.06,10.28,3.8,1.94-.12,3.82-.67,5.47-1.71,3.24-2.35,6.24-4.12,10.56-4.09,2.45.02,4.86.62,6.96,1.9,3.23,2.25,5.95,4.14,10.27,3.91,2.05-.11,4-.69,5.74-1.79,3.23-2.34,6.17-4.07,10.48-4.02,2.45.03,4.84.62,6.94,1.9l3.73,2.46c3.95,2,8.39,2.05,12.23-.29,3.18-2.3,6.07-4.04,10.31-4.06,2.52-.01,5,.58,7.17,1.9l3.66,2.41c3.97,2.05,8.44,2.11,12.31-.26,3.2-2.32,6.04-4.01,10.3-4.05,2.42-.03,4.88.48,6.96,1.76,3.54,2.53,7.23,4.87,11.94,3.9l.37-.26v-5.2c-2.36.46-5.41.35-7.53-1.06ZM192.47,32.68l-3.44-2.27c-4.6-3.03-11.97-3-16.6.08l-3.12,2.07c-2.83,1.88-7.61,1.9-10.4.04l-2.94-1.96c-2.61-1.74-5.61-2.51-8.77-2.48s-5.93.78-8.45,2.48l-2.38,1.6c-1.8,1.21-3.77,1.79-5.95,1.74-1.76-.05-3.42-.36-4.89-1.34l-3.06-2.03c-2.51-1.67-5.37-2.4-8.38-2.44-3.52-.05-6.76.96-9.6,3.02-2.62,1.91-4.06,2.76-7.38,2.8-2.07.02-3.93-.59-5.63-1.73l-1.82-1.22c-2.78-1.87-5.86-2.88-9.22-2.86-3.09.02-6.01.76-8.57,2.49l-2.11,1.43c-1.82,1.23-3.77,1.91-5.98,1.91s-4.16-.59-5.92-1.87c-3.5-2.54-6.17-3.9-10.63-3.96-3.39-.05-6.5.91-9.28,2.81l-1.98,1.35c-1.76,1.2-3.71,1.7-5.84,1.66-4.42-.07-5.62-2.18-9.2-4.11-2.37-1.28-4.97-1.76-7.67-1.71s-5.04.62-7.29,1.89c-1.09.62-2.04,1.32-3.09,2.01-.91.6-1.83,1.21-2.85,1.41v5.31c.08.03.16.06.24.07s.16.02.23,0c1.04-.31,2.02-.81,2.94-1.4,3.17-2.33,6.12-4,10.36-3.94,2.48.03,4.88.64,7,1.93,3.07,2.14,5.67,3.94,9.76,3.89,2.15-.03,4.26-.59,6.09-1.73,3.23-2.33,6.18-4.12,10.5-4.09,2.55.02,5.02.66,7.2,2,3.22,2.29,5.97,4.06,10.28,3.8,1.94-.12,3.82-.67,5.47-1.71,3.24-2.35,6.24-4.12,10.56-4.09,2.45.02,4.86.62,6.96,1.9,3.23,2.25,5.95,4.14,10.27,3.91,2.05-.11,4-.69,5.74-1.79,3.23-2.34,6.17-4.07,10.48-4.02,2.45.03,4.84.62,6.94,1.9l3.73,2.46c3.95,2,8.39,2.05,12.23-.29,3.18-2.3,6.07-4.04,10.31-4.06,2.52-.01,5,.58,7.17,1.9l3.66,2.41c3.97,2.05,8.44,2.11,12.31-.26,3.2-2.32,6.04-4.01,10.3-4.05,2.42-.03,4.88.48,6.96,1.76,3.54,2.53,7.23,4.87,11.94,3.9l.37-.26v-5.2c-2.36.46-5.41.35-7.53-1.06Z" fill="url(#uuid-8417b1f6-f7fd-4add-b7b6-e485ecd689a7)"/>
</svg>