<?xml version="1.0" encoding="UTF-8"?>
<svg id="uuid-921b9aee-9a9a-4781-a292-1556c77bc1ea" data-name="uuid-67540242-1202-4d96-a3d7-33ee163ccbef" xmlns="http://www.w3.org/2000/svg" width="1184.82" height="543.66" viewBox="0 0 1184.82 543.66">
  <path d="M433.45,372.42c-3.63-2.24-6.6-5.24-8.91-9.03-2.31-3.78-4.02-8.18-5.09-13.2-1.08-5.01-1.62-10.22-1.62-15.63v-84.5h-45.14v84.5c0,10.96,1.39,21.34,4.17,31.14,2.78,9.8,7.18,18.4,13.2,25.81s13.69,13.31,23.03,17.71,20.56,6.6,33.68,6.6,23.65-2.08,32.99-6.25,17.09-9.88,23.27-17.13c6.17-7.25,10.73-15.86,13.66-25.81s4.4-20.64,4.4-32.06v-84.5h-45.14v84.5c0,5.4-.54,10.57-1.62,15.51s-2.78,9.3-5.09,13.08-5.32,6.83-9.03,9.14c-3.7,2.31-8.18,3.47-13.43,3.47s-9.69-1.12-13.31-3.36h-.02Z" fill="#257eba"/>
  <path d="M560.2,414.43l9.72-32.18h43.75l9.95,32.18h47.69l-61.12-164.37h-36.58l-61.35,164.37h47.94ZM606.5,352.16h-29.86l15.28-55.1,14.58,55.1h0Z" fill="#257eba"/>
  <path d="M803.27,414.43v-39.36h-74.54v-125.01h-45.14v164.37h119.69-.01Z" fill="#257eba"/>
  <path d="M864.85,414.43v-164.37h-45.14v164.37h45.14Z" fill="#257eba"/>
  <path d="M1021.12,250.07h-139.83v39.36h47.46v125.01h45.14v-125.01h47.23v-39.36h0Z" fill="#257eba"/>
  <path d="M1025.06,250.07l55.79,109.5v54.87h44.91v-54.4l56.72-109.96h-49.08l-30.1,71.07-29.4-71.07h-48.85,0Z" fill="#257eba"/>
  <path d="M1179.2,540.97c-2.5.94-5.46,1.4-8.89,1.4-5.1,0-8.64-.86-10.61-2.57-1.98-1.72-3.43-4.34-4.37-7.88l-2.8-10.77h-28.25c-.37,1.32-.71,2.62-1.01,3.9-.47,1.98-.94,3.85-1.4,5.62-.47,1.77-.91,3.49-1.33,5.15-.42,1.67-.83,3.28-1.25,4.84-1.35.41-2.86.83-4.53,1.25-1.67.41-3.64.62-5.93.62-5.2,0-9.1-.91-11.7-2.73s-3.9-4.34-3.9-7.57c0-1.46.21-2.91.62-4.37s.88-3.17,1.4-5.15c.83-3.33,2.08-7.62,3.75-12.87,1.66-5.25,3.51-10.92,5.54-17.01s4.06-12.04,6.09-17.87c2.03-5.82,3.87-11.05,5.54-15.68,1.66-4.63,2.91-8.04,3.75-10.22,1.77-1.04,4.47-2.03,8.11-2.96,3.64-.94,7.23-1.4,10.77-1.4,5.2,0,9.83.76,13.89,2.26,4.06,1.51,6.6,3.93,7.65,7.26,1.87,5.31,3.87,11.52,6.01,18.65,2.13,7.13,4.32,14.57,6.55,22.31,2.24,7.75,4.39,15.29,6.48,22.63,2.08,7.33,3.9,13.91,5.46,19.74-1.25,1.35-3.12,2.5-5.62,3.43h-.02ZM1142.22,478.47c-.94-3.38-1.82-6.48-2.65-9.28h-.94c-.94,2.91-1.98,6.09-3.12,9.52-1.15,3.43-2.34,7.05-3.59,10.85-1.12,3.41-2.2,6.92-3.23,10.53h19.41c-.97-3.78-1.95-7.42-2.92-10.92-1.04-3.75-2.03-7.31-2.96-10.69h0ZM1077.77,507.26c-6.03,2.81-13.16,4.21-21.38,4.21h-9.05v29.18c-1.15.31-2.91.62-5.31.94-2.39.31-4.84.47-7.33.47-5.41,0-9.21-.96-11.39-2.89-2.18-1.92-3.28-5.28-3.28-10.07v-73.97c0-2.18.62-3.87,1.87-5.07,1.25-1.19,2.86-2.16,4.84-2.89,3.54-1.25,7.75-2.16,12.64-2.73s9.26-.86,13.11-.86c14.25,0,25.2,3.07,32.85,9.21,7.65,6.14,11.47,14.46,11.47,24.97,0,6.76-1.67,12.67-4.99,17.71-3.33,5.05-8.01,8.97-14.04,11.78h0ZM1065.37,468.64c-2.45-2.13-6.01-3.2-10.69-3.2-1.67,0-3.04.03-4.13.08s-2.21.18-3.36.39v24.19h7.49c4.26,0,7.72-1.07,10.38-3.2,2.65-2.13,3.98-5.17,3.98-9.13s-1.22-7-3.67-9.13h0ZM972.75,479.02l8.27,2.65c9.88,3.12,17.42,7.15,22.63,12.09,5.2,4.94,7.8,11.57,7.8,19.9,0,8.84-3.51,16.05-10.53,21.61s-17.24,8.35-30.66,8.35c-6.35,0-12.07-.68-17.17-2.03-5.1-1.35-9.16-3.38-12.17-6.09-3.02-2.7-4.53-5.98-4.53-9.83,0-3.02.88-5.59,2.65-7.72,1.77-2.13,3.69-3.77,5.77-4.92,2.91,2.29,6.48,4.27,10.69,5.93,4.21,1.67,8.82,2.5,13.81,2.5s8.68-.83,10.77-2.5c2.08-1.66,3.12-3.54,3.12-5.62s-.83-3.72-2.5-4.92c-1.67-1.19-4.01-2.31-7.02-3.35l-6.55-2.18c-6.03-2.08-11.37-4.29-15.99-6.63-4.63-2.34-8.25-5.38-10.85-9.13s-3.9-8.63-3.9-14.67c0-8.84,3.41-15.92,10.22-21.22,6.81-5.31,16.36-7.96,28.63-7.96,6.03,0,11.39.57,16.07,1.72s8.37,2.89,11.08,5.23c2.7,2.34,4.06,5.33,4.06,8.97,0,2.6-.62,4.89-1.87,6.87-1.25,1.98-2.76,3.64-4.53,4.99-2.29-1.46-5.36-2.73-9.21-3.82-3.85-1.09-8.06-1.64-12.64-1.64s-8.11.65-10.3,1.95c-2.18,1.3-3.28,2.94-3.28,4.92,0,1.56.7,2.84,2.11,3.82,1.4.99,3.41,1.9,6.01,2.73h.01ZM903.63,539.17c-2.5,2.55-5.46,3.82-8.89,3.82-4.16,0-8.22-1.98-12.17-5.93l-2.89-2.89c-3.68,2.94-7.87,5.11-12.56,6.48-6.03,1.77-11.76,2.65-17.17,2.65-8.11,0-14.98-1.38-20.6-4.14s-9.91-6.5-12.87-11.24c-2.96-4.73-4.45-10.07-4.45-15.99,0-5.2,1.04-9.7,3.12-13.5s4.78-7,8.11-9.6c2.78-2.17,5.71-3.9,8.78-5.21-2.53-3.13-4.16-5.84-4.88-8.14-.94-2.96-1.4-5.64-1.4-8.04,0-4.37,1.14-8.37,3.43-12.02,2.29-3.64,5.59-6.53,9.91-8.66,4.32-2.13,9.6-3.2,15.84-3.2,6.55,0,11.18,1.17,13.89,3.51,2.7,2.34,4.06,5.33,4.06,8.97,0,1.67-.34,3.35-1.01,5.07-.68,1.72-1.69,3.25-3.04,4.6-1.15-.52-2.47-.94-3.98-1.25s-3.1-.47-4.76-.47c-2.71,0-4.94.6-6.71,1.79-1.77,1.2-2.65,2.99-2.65,5.38,0,1.56.57,3.07,1.72,4.53,1.14,1.46,2.91,3.33,5.31,5.62l19.95,19.26c.61-2.54,1.01-5.24,1.2-8.11.26-4.11.39-7.67.39-10.69,1.97-.83,3.85-1.43,5.62-1.79,1.77-.36,3.48-.55,5.15-.55,4.89,0,8.11,1.35,9.67,4.06s2.34,6.19,2.34,10.46-.7,8.89-2.11,13.89c-.96,3.4-2.4,6.78-4.25,10.13l11.97,11.56c-.21,3.85-1.56,7.05-4.06,9.6v.04ZM844.61,499.11c-1.14.5-2.2,1.16-3.16,1.99-1.4,1.2-2.5,2.55-3.28,4.06s-1.17,3.2-1.17,5.07c0,3.54,1.22,6.55,3.67,9.05,2.44,2.5,6.06,3.75,10.85,3.75,1.66,0,4.16-.39,7.49-1.17,1.97-.46,3.9-1.32,5.79-2.56l-20.18-20.18h0ZM774.42,541.28h-42.13c-4.47,0-8.01-1.3-10.61-3.9-2.6-2.6-3.9-6.14-3.9-10.61v-80.83c1.25-.21,3.09-.49,5.54-.86,2.44-.36,4.81-.55,7.1-.55,5.2,0,8.95.88,11.24,2.65s3.43,5.2,3.43,10.3v61.79h35.73c.73,1.15,1.4,2.65,2.03,4.53.62,1.87.94,3.9.94,6.09,0,3.85-.83,6.71-2.5,8.58s-3.95,2.81-6.87,2.81h0ZM684.3,537.85c-7.44,3.85-15.89,5.77-25.36,5.77s-17.92-1.93-25.36-5.77c-7.44-3.85-13.29-9.52-17.55-17.01-4.27-7.49-6.4-16.64-6.4-27.46s2.18-19.95,6.55-27.39c4.37-7.44,10.27-13.08,17.71-16.93s15.78-5.77,25.05-5.77,17.63,1.93,25.12,5.77c7.49,3.85,13.42,9.49,17.79,16.93s6.55,16.57,6.55,27.39-2.16,19.97-6.48,27.46c-4.32,7.49-10.2,13.16-17.63,17.01h.01ZM674.55,472.39c-3.85-4.73-9.05-7.1-15.6-7.1s-11.47,2.34-15.37,7.02-5.85,11.7-5.85,21.07,1.95,16.54,5.85,21.22c3.9,4.68,9.07,7.02,15.53,7.02s11.6-2.34,15.45-7.02c3.85-4.68,5.77-11.75,5.77-21.22s-1.93-16.25-5.77-20.99h-.01ZM580.85,537.85c-7.44,3.85-15.89,5.77-25.36,5.77s-17.92-1.93-25.36-5.77c-7.44-3.85-13.29-9.52-17.55-17.01-4.27-7.49-6.4-16.64-6.4-27.46s2.18-19.95,6.55-27.39c4.37-7.44,10.27-13.08,17.71-16.93s15.78-5.77,25.05-5.77,17.63,1.93,25.12,5.77c7.49,3.85,13.42,9.49,17.79,16.93s6.55,16.57,6.55,27.39-2.16,19.97-6.48,27.46c-4.32,7.49-10.2,13.16-17.63,17.01h0ZM571.09,472.39c-3.85-4.73-9.05-7.1-15.6-7.1s-11.47,2.34-15.37,7.02-5.85,11.7-5.85,21.07,1.95,16.54,5.85,21.22c3.9,4.68,9.07,7.02,15.53,7.02s11.6-2.34,15.45-7.02c3.85-4.68,5.77-11.75,5.77-21.22s-1.93-16.25-5.77-20.99h-.01ZM484.18,507.26c-6.03,2.81-13.16,4.21-21.38,4.21h-9.05v29.18c-1.15.31-2.91.62-5.31.94-2.39.31-4.84.47-7.33.47-5.41,0-9.21-.96-11.39-2.89-2.18-1.92-3.28-5.28-3.28-10.07v-73.97c0-2.18.62-3.87,1.87-5.07,1.25-1.19,2.86-2.16,4.84-2.89,3.54-1.25,7.75-2.16,12.64-2.73s9.26-.86,13.11-.86c14.25,0,25.2,3.07,32.85,9.21,7.65,6.14,11.47,14.46,11.47,24.97,0,6.76-1.67,12.67-4.99,17.71-3.33,5.05-8.01,8.97-14.04,11.78h-.01ZM471.77,468.64c-2.45-2.13-6.01-3.2-10.69-3.2-1.67,0-3.04.03-4.14.08-1.09.05-2.21.18-3.36.39v24.19h7.49c4.26,0,7.72-1.07,10.38-3.2,2.65-2.13,3.98-5.17,3.98-9.13s-1.22-7-3.67-9.13h.01Z" fill="#a0dcec" fill-rule="evenodd"/>
  <path d="M934.04,115l-1.63,11.61,9.79,4.22,17.94,25.32s-.05.39-.08.64c-.43,4.72.08,22.57.08,22.57l9.79,7.39,1.63,13.72-11.42-6.33s1.24,8.98,2.35,16.51c-12.05-.66-24.23-1.24-36.52-1.76-4.34-9.36-16.39-31.63-16.39-31.63l-39.14-22.16-16.31-18.99-6.52-37.98-19.57-15.83-9.79,25.32-6.52-47.48-102.75,78.07-8.16-4.22-23.32,17.19,6.08,5.41,27.02,1.66,22.83,24.27-25.96-4.62s23.17,20.65,32.31,28.66c-26.59.41-53.66,1.13-81.23,2.17.1-7.28-.14-17.77-.14-17.77l-50.56-39.04-39.14,27.43-1.63-20.05-91.82,60.57s-50.43,4.39-76.18,6.96c-.56.06-1.07.11-1.62.16,43.34-26.29,147.13-83.35,172.88-88.79,15.36-15.5,29.36-27.43,29.36-27.43l21.2,1.05,3.26,4.22,9.79-2.11,14.68,7.39,13.05-1.06,97.86-66.47,9.79-1.05L850.86,0l6.52,11.61,11.42,8.44,60.35,60.14s11.99.18,21.2,0c5.96,6.15,149.64,108.22,194.09,146.65-28.3-12.84-153.31-66.47-153.31-66.47l-57.09-45.37h0Z" fill="#257eba" fill-rule="evenodd"/>
  <path d="M167,399.5c58.34-62.39,102.66-30.88,134,4s70.99,87.39,116,54c-76.32,97.74-127.01,10.46-141-10s-51.54-66.21-109-48Z" fill="#a0dcec" fill-rule="evenodd"/>
  <path d="M295.41,185.51c.2.34.38.64.59.99,42.47,70.85,21.26,147.38-9.84,192.34-.08-.05-.16-.12-.23-.17,8.49-16.14,13.5-34.4,14.03-53.79.01-.13.05-.25.05-.39,0-59.62-58.58-141.63-94.97-189.74-.17-.27-12.03-10.26-12.03-10.26l-16-25-19,22-11,8-6,10-6,4-17-1-3,9-13,8-7,9-4,2-9-4-15,17-8,3-9,14s-3.5-1.5-4-1c30.5-42.5,74.7-110.48,157-186,6.15,60.28,63.25,134.8,92.41,172.01h0Z" fill="#a0dcec" fill-rule="evenodd"/>
  <path d="M177,198.5c40.99,0,77.29,20.06,99.64,50.88-19.79-32.46-53.84-77.91-76.55-107.37-.71-.81-12.09-10.51-12.09-10.51l-11-19-13,14-11,9-5,9-3,1-7,6-15-1-2,6-13,8-7,8-13,5-5-3-14,18-7,3-11,17s-10.47-1.79-11.81-2.09C14.68,240.79,0,279.43,0,321.5c0,97.75,79.25,177,177,177,16.78,0,31.62-1.64,47-6-9.04-14.94-27.17-37.99-45-48-67.88-.05-125-55.1-125-123s55.07-123,123-123ZM195,153.5v-2l14,19,10,9s1.2,6.4,1,7c-6.8-3-13.2-4.4-20-4-.2-.4,0-12,0-12l-3,3v-12l-8-13,6,5ZM147,156.5l12-16,3-1,6-8,5,19,2-9,2,18,6,5h-4l8,6-1,13s4.6,6.8,6,10c-5.4-1.6-24.8-.4-31,2-.2-1.6,0-8,0-8l-10-8,1-6-7-5h6l-12-8,8-4ZM105,180.5l6-9,9-6-3,6,12-9,9,17-3-1,1,9-12,11,7-2-9,8s1,2.2,1,2c-4,.8-6.4,2.2-11,5l-6-7,2,6-6-7-3,3-2-18-7-4,15-4ZM80,211.5l-4-8-7,12-8-3,2-3,3-1,1-6,17-14,3,6,4,3v5l-4,5-7,4Z" fill="#257eba" fill-rule="evenodd"/>
  <path d="M296,186.5c42.47,70.85,21.26,147.38-9.84,192.34,13.21,9.06,27.82,31.36,37.84,40.66,19.33-28.36,30-61.09,30-98,0-44.26-20.39-81.57-43.1-115.75-2.73-4.11-15.11-19.6-14.9-19.25Z" fill="#257eba" fill-rule="evenodd"/>
  <path d="M131,430.5c56.54-50.43,114.48-16.68,139,25,21.13,35.92,66.46,77.23,105,50-48,65.75-108.24,35.68-138-9-34.66-52.03-54.74-70.97-106-66Z" fill="#257eba" fill-rule="evenodd"/>
</svg>