<?xml version="1.0" encoding="UTF-8"?>
<svg id="uuid-b542446a-595b-4290-a9c6-7cf4ccefa901" xmlns="http://www.w3.org/2000/svg" width="100" height="100" version="1.1" viewBox="0 0 100 100">
  <!-- Generator: Adobe Illustrator 30.1.0, SVG Export Plug-In . SVG Version: 2.1.1 Build 136)  -->
  <defs>
    <style>
      .st0 {
        fill: #6cbede;
      }

      .st0, .st1, .st2 {
        fill-rule: evenodd;
      }

      .st1 {
        fill: #065181;
      }

      .st2 {
        fill: #fff;
      }
    </style>
  </defs>
  <polygon class="st2" points="59.16 32.35 53.33 24.85 48.42 21.28 44.74 24.72 43.1 26.52 38.74 28.11 36.48 29.79 35.05 30.84 31.83 32.06 29.31 34.46 28.1 35.83 26.84 37.67 30.74 39.22 37.32 38.1 40.46 36.37 43.81 33.36 46.04 34.66 53.45 34.46 55.34 33.01 58.44 33.52 59.16 32.35"/>
  <path class="st0" d="M47.9,72.81c11-11.77,19.36-5.82,25.28.75,5.91,6.58,13.39,16.48,21.88,10.19-14.4,18.44-23.96,1.97-26.6-1.89-2.64-3.86-9.72-12.49-20.56-9.05Z"/>
  <path class="st0" d="M72.12,32.45c.04.06.07.12.11.19,8.01,13.36,4.01,27.8-1.86,36.28-.02,0-.03-.02-.04-.03,1.6-3.04,2.55-6.49,2.65-10.15,0-.02,0-.05,0-.07,0-11.25-11.05-26.71-17.91-35.79-.03-.05-2.27-1.94-2.27-1.94l-3.02-4.72-3.58,4.15-2.07,1.51-1.13,1.89-1.13.75-3.21-.19-.57,1.7-2.45,1.51-1.32,1.7-.75.38-1.7-.75-2.83,3.21-1.51.57-1.7,2.64s-.66-.28-.75-.19C30.83,27.07,39.17,14.24,54.69,0c1.16,11.37,11.93,25.43,17.43,32.44h0Z"/>
  <path class="st1" d="M49.79,34.9c7.73,0,14.58,3.78,18.79,9.6-3.73-6.12-10.16-14.7-14.44-20.25-.13-.15-2.28-1.98-2.28-1.98l-2.07-3.58-2.45,2.64-2.07,1.7-.94,1.7-.57.19-1.32,1.13-2.83-.19-.38,1.13-2.45,1.51-1.32,1.51-2.45.94-.94-.57-2.64,3.4-1.32.57-2.07,3.21s-1.97-.34-2.23-.39c-4.62,5.73-7.39,13.02-7.39,20.95,0,18.44,14.95,33.39,33.39,33.39,3.17,0,5.96-.31,8.87-1.13-1.71-2.82-5.12-7.17-8.49-9.05-12.8,0-23.58-10.39-23.58-23.2s10.39-23.2,23.2-23.2h0ZM53.18,26.41v-.38l2.64,3.58,1.89,1.7s.23,1.21.19,1.32c-1.28-.57-2.49-.83-3.77-.75-.04-.08,0-2.26,0-2.26l-.57.57v-2.26l-1.51-2.45,1.13.94ZM44.13,26.97l2.26-3.02.57-.19,1.13-1.51.94,3.58.38-1.7.38,3.4,1.13.94h-.75l1.51,1.13-.19,2.45s.87,1.28,1.13,1.89c-1.02-.3-4.68-.08-5.85.38-.04-.3,0-1.51,0-1.51l-1.89-1.51.19-1.13-1.32-.94h1.13l-2.26-1.51,1.51-.75ZM36.21,31.5l1.13-1.7,1.7-1.13-.57,1.13,2.26-1.7,1.7,3.21-.57-.19.19,1.7-2.26,2.07,1.32-.38-1.7,1.51s.19.41.19.38c-.75.15-1.21.41-2.07.94l-1.13-1.32.38,1.13-1.13-1.32-.57.57-.38-3.4-1.32-.75,2.83-.75ZM31.49,37.35l-.75-1.51-1.32,2.26-1.51-.57.38-.57.57-.19.19-1.13,3.21-2.64.57,1.13.75.57v.94l-.75.94-1.32.75Z"/>
  <path class="st1" d="M72.23,32.63c8.01,13.36,4.01,27.8-1.86,36.28,2.49,1.71,5.25,5.92,7.14,7.67,3.65-5.35,5.66-11.52,5.66-18.48,0-8.35-3.85-15.39-8.13-21.83-.51-.78-2.85-3.7-2.81-3.63h0Z"/>
  <path class="st1" d="M41.11,78.66c10.66-9.51,21.59-3.15,26.22,4.72,3.99,6.78,12.54,14.57,19.81,9.43-9.05,12.4-20.42,6.73-26.03-1.7-6.54-9.81-10.33-13.39-19.99-12.45Z"/>
</svg>