<?xml version="1.0" encoding="UTF-8"?>
<svg id="uuid-48b0c80e-3391-4fe4-a5b2-7de3b37d72ab" data-name="Layer 1" xmlns="http://www.w3.org/2000/svg" width="1006.15" height="468.32" viewBox="0 0 1006.15 468.32">
  <g id="uuid-60e11433-a880-4424-90e3-a02796793fe3" data-name="Outline Opaque">
    <path d="M722.03,441.07c-1.06.17-1.68.21-2,.21-2.61,0-4.47-.55-5.54-1.64-1.14-1.17-1.65-2.43-1.65-4.1,0-.77.14-1.41.43-1.97.14-.27.3-.52.48-.77l8.28,8.27h0Z" fill="none"/>
    <path d="M770.67,448.19l-7.4-7.15c.94-2.06,1.69-4.11,2.26-6.12,1.29-4.61,1.95-8.99,1.95-13.01,0-4.45-.88-8.25-2.63-11.28-1.56-2.7-4.98-5.91-12.46-5.91-1.72,0-3.52.19-5.33.56-1.8.38-3.7.98-5.65,1.8l-3.06,1.29v3.32c0,1.52-.04,3.25-.13,5.16l-9.48-9.15c-2.29-2.19-3.43-3.5-3.99-4.21-.24-.3-.38-.56-.38-.71,0-.2.02-.32.03-.38.64-.43,1.59-.65,2.83-.65,1.06,0,2.06.1,2.99.29.89.18,1.66.42,2.29.71l3.15,1.42,2.45-2.44c1.61-1.62,2.85-3.49,3.67-5.57.8-2.03,1.2-4.07,1.2-6.09,0-4.5-1.78-8.41-5.13-11.32-3.25-2.8-8.13-4.17-14.94-4.17-5.99,0-11.21,1.08-15.51,3.21-4.45,2.2-7.93,5.26-10.34,9.09-2.42,3.86-3.65,8.15-3.65,12.75,0,2.51.47,5.29,1.41,8.26.36,1.13.87,2.3,1.56,3.53-1.07.68-2.12,1.43-3.15,2.22-3.32,2.6-6.05,5.83-8.12,9.6-2.14,3.92-3.23,8.54-3.23,13.74,0,5.91,1.51,11.32,4.49,16.08,2.98,4.76,7.31,8.55,12.85,11.27,5.39,2.65,11.95,3.99,19.5,3.99,4.99,0,10.31-.82,15.82-2.43,3.05-.9,5.92-2.16,8.56-3.76,4.13,3.93,8.57,5.92,13.22,5.92,4.21,0,8.02-1.63,11.04-4.71,2.96-3.02,4.59-6.82,4.83-11.28l.13-2.29-1.65-1.58h0ZM720.03,441.28c-2.61,0-4.47-.55-5.54-1.64-1.14-1.17-1.65-2.43-1.65-4.1,0-.77.14-1.41.43-1.97.14-.27.3-.52.48-.77l8.28,8.27c-1.06.17-1.68.21-2,.21h0Z" fill="#fff"/>
    <path d="M722.03,441.07c-1.06.17-1.68.21-2,.21-2.61,0-4.47-.55-5.54-1.64-1.14-1.17-1.65-2.43-1.65-4.1,0-.77.14-1.41.43-1.97.14-.27.3-.52.48-.77l8.28,8.27h0Z" fill="none"/>
    <path d="M571.28,421.38c0,6.73-1.24,11.65-3.71,14.65-2.28,2.78-5.18,4.07-9.11,4.07s-6.86-1.3-9.19-4.1c-2.49-2.99-3.76-7.9-3.76-14.62s1.26-11.49,3.76-14.48c2.33-2.8,5.21-4.1,9.06-4.1s6.94,1.31,9.23,4.12c2.47,3.04,3.72,7.91,3.72,14.46h0Z" fill="none"/>
    <path d="M484.41,421.38c0,6.73-1.25,11.65-3.71,14.65-2.29,2.78-5.18,4.07-9.11,4.07s-6.87-1.3-9.2-4.1c-2.49-2.99-3.75-7.9-3.75-14.62s1.26-11.49,3.75-14.48c2.33-2.8,5.21-4.1,9.07-4.1s6.94,1.31,9.22,4.12c2.47,3.04,3.73,7.91,3.73,14.46h0Z" fill="none"/>
    <path d="M399.24,408.28c0,2.29-.79,3.22-1.48,3.77-1.32,1.06-3.15,1.58-5.58,1.58h-1.29v-10.69c.4-.01.84-.01,1.29-.01,1.84,0,4.31.25,5.69,1.46.59.5,1.37,1.47,1.37,3.89h0Z" fill="none"/>
    <path d="M251.92,279.27s-.01.07-.01.1l-.02.2v.2c-.42,15.15-4.19,29.61-11.22,42.97l-.07.14c-11.29-8.55-24.86-15.24-40.35-15.24-19.38,0-39.12,10.6-58.67,31.5l-11.98,12.82c-6.11,3.41-12.09,7.69-17.92,12.9l-.43.38c-33.08-16.06-55.9-49.56-55.9-88.18,0-54.2,44.09-98.29,98.28-98.29,23.09,0,45.51,8.17,63.17,23.01.13.12.32.29.57.52,1.8,1.68,7.24,6.73,9.53,9.27,6.93,8.78,12.29,20.49,17.96,32.88.48,1.04.95,2.08,1.43,3.11,3.7,11.7,5.59,22.37,5.63,31.71h0Z" fill="none"/>
    <path d="M571.28,421.38c0,6.73-1.24,11.65-3.71,14.65-2.28,2.78-5.18,4.07-9.11,4.07s-6.86-1.3-9.19-4.1c-2.49-2.99-3.76-7.9-3.76-14.62s1.26-11.49,3.76-14.48c2.33-2.8,5.21-4.1,9.06-4.1s6.94,1.31,9.23,4.12c2.47,3.04,3.72,7.91,3.72,14.46h0Z" fill="none"/>
    <path d="M484.41,421.38c0,6.73-1.25,11.65-3.71,14.65-2.29,2.78-5.18,4.07-9.11,4.07s-6.87-1.3-9.2-4.1c-2.49-2.99-3.75-7.9-3.75-14.62s1.26-11.49,3.75-14.48c2.33-2.8,5.21-4.1,9.07-4.1s6.94,1.31,9.22,4.12c2.47,3.04,3.73,7.91,3.73,14.46h0Z" fill="none"/>
    <path d="M399.24,408.28c0,2.29-.79,3.22-1.48,3.77-1.32,1.06-3.15,1.58-5.58,1.58h-1.29v-10.69c.4-.01.84-.01,1.29-.01,1.84,0,4.31.25,5.69,1.46.59.5,1.37,1.47,1.37,3.89h0Z" fill="none"/>
    <path d="M251.92,279.27s-.01.07-.01.1l-.02.2v.2c-.42,15.15-4.19,29.61-11.22,42.97l-.07.14c-11.29-8.55-24.86-15.24-40.35-15.24-19.38,0-39.12,10.6-58.67,31.5l-11.98,12.82c-6.11,3.41-12.09,7.69-17.92,12.9l-.43.38c-33.08-16.06-55.9-49.56-55.9-88.18,0-54.2,44.09-98.29,98.28-98.29,23.09,0,45.51,8.17,63.17,23.01.13.12.32.29.57.52,1.8,1.68,7.24,6.73,9.53,9.27,6.93,8.78,12.29,20.49,17.96,32.88.48,1.04.95,2.08,1.43,3.11,3.7,11.7,5.59,22.37,5.63,31.71h0Z" fill="none"/>
    <path d="M962.59,422.02h-3.08c.24-.77.49-1.54.74-2.28.31-.96.62-1.91.93-2.84.21.75.42,1.51.64,2.29.25.92.51,1.87.77,2.83h0Z" fill="none"/>
    <path d="M897.69,408.28c0,2.29-.79,3.22-1.47,3.77-1.33,1.06-3.16,1.58-5.59,1.58h-1.29v-10.69c.41-.01.84-.01,1.29-.01,1.84,0,4.31.25,5.69,1.45.59.51,1.37,1.48,1.37,3.9h0Z" fill="none"/>
    <path d="M1004.75,457.17c-1.3-4.85-2.85-10.45-4.61-16.64-1.79-6.3-3.62-12.7-5.44-19.02-1.89-6.53-3.75-12.85-5.52-18.79-1.8-6.02-3.52-11.34-5.1-15.82-.95-2.96-3.36-6.93-9.41-9.18-3.96-1.47-8.47-2.22-13.41-2.22-3.38,0-6.84.45-10.29,1.34-3.54.91-6.19,1.9-8.1,3.02l-1.51.89-.63,1.64c-.71,1.86-1.75,4.7-3.17,8.67-1.38,3.82-2.95,8.27-4.67,13.22-.64,1.82-1.27,3.66-1.91,5.51.02-.5.03-1,.03-1.51,0-10.37-3.87-18.74-11.5-24.86-7.3-5.86-17.63-8.84-30.71-8.84-3.4,0-7.3.26-11.59.76-4.46.52-8.39,1.38-11.7,2.54l-.03.02h-.03c-2.3.85-4.25,2.03-5.79,3.51-1.42,1.37-3.12,3.83-3.12,7.87v36.04c-1.31-2.7-3.08-5.12-5.31-7.23-4.91-4.66-11.95-8.46-20.94-11.3l-6.92-2.22c-1-.32-1.76-.62-2.33-.88.84-.28,2.47-.63,5.39-.63,3.36,0,6.47.4,9.25,1.19,2.74.78,4.9,1.66,6.41,2.62l2.94,1.87,2.78-2.12c1.95-1.49,3.63-3.34,4.99-5.5,1.56-2.46,2.34-5.3,2.34-8.43,0-4.5-1.77-8.41-5.13-11.32-2.87-2.48-6.7-4.31-11.39-5.46-4.3-1.05-9.24-1.59-14.68-1.59-11.4,0-20.53,2.61-27.12,7.74-6.97,5.43-10.51,12.75-10.51,21.77,0,6.08,1.4,11.18,4.17,15.17,2.65,3.81,6.34,6.93,10.96,9.27,4.07,2.06,8.8,4.02,14.05,5.83h.03l.02.02,5.48,1.83c2.55.88,3.9,1.65,4.59,2.14h.01v.07c-.02.07-.2.38-.74.81-.13.1-1.39,1-5.92,1-3.54,0-6.83-.59-9.76-1.75-3.07-1.21-5.67-2.64-7.72-4.26l-2.61-2.04-2.9,1.59c-2.29,1.26-4.4,3.05-6.28,5.32-2.24,2.7-3.38,5.96-3.38,9.68,0,4.63,1.89,8.78,5.46,11.98,3.12,2.79,7.25,4.88,12.28,6.22,4.68,1.24,9.96,1.87,15.69,1.87,12.37,0,22.08-2.73,28.86-8.09,3.5-2.78,6.15-5.98,7.94-9.59v.49c0,5.5,1.5,9.61,4.45,12.21,2.81,2.47,7.02,3.67,12.87,3.67,2.3,0,4.59-.15,6.81-.44,2.25-.29,3.93-.59,5.12-.92l3.69-1v-23.33h2.6c7.6,0,14.35-1.34,20.06-4,5.45-2.54,9.85-6.09,13.09-10.57-.76,2.33-1.48,4.57-2.15,6.69-1.42,4.47-2.5,8.2-3.22,11.08-.43,1.6-.81,3.02-1.15,4.19-.47,1.66-.71,3.36-.71,5.04,0,4.37,1.87,7.98,5.41,10.45,3.07,2.15,7.22,3.2,12.69,3.2,2.32,0,4.4-.23,6.19-.67,1.47-.37,2.83-.75,4.06-1.12l2.65-.82.71-2.68c.36-1.33.71-2.71,1.07-4.13.34-1.38.71-2.8,1.1-4.26.35-1.35.72-2.78,1.07-4.27h15.98l1.38,5.3c1.05,3.96,2.81,7.03,5.23,9.13,2.62,2.28,6.61,3.39,12.19,3.39,3.47,0,6.57-.5,9.22-1.5,2.87-1.07,5.04-2.44,6.64-4.17l1.87-2.03-.71-2.66h0ZM896.22,412.05c-1.33,1.06-3.16,1.58-5.59,1.58h-1.29v-10.69c.41-.01.84-.01,1.29-.01,1.84,0,4.31.25,5.69,1.45.59.51,1.37,1.48,1.37,3.9,0,2.29-.79,3.22-1.47,3.77h0ZM959.51,422.02c.24-.77.49-1.54.74-2.28.31-.96.62-1.91.93-2.84.21.75.42,1.51.64,2.29.25.92.51,1.87.77,2.83h-3.08Z" fill="#fff"/>
    <path d="M897.69,408.28c0,2.29-.79,3.22-1.47,3.77-1.33,1.06-3.16,1.58-5.59,1.58h-1.29v-10.69c.41-.01.84-.01,1.29-.01,1.84,0,4.31.25,5.69,1.45.59.51,1.37,1.48,1.37,3.9h0Z" fill="none"/>
    <path d="M962.59,422.02h-3.08c.24-.77.49-1.54.74-2.28.31-.96.62-1.91.93-2.84.21.75.42,1.51.64,2.29.25.92.51,1.87.77,2.83h0Z" fill="none"/>
    <path d="M1006.15,212.07l-3.76,7.3-47.07,91.26v49.47h-47.71v-49.87l-40.16-78.81v23.7h-39.65v104.98h-47.91v-104.98h-39.85v-43.05h170.08l1.28,3.09,20.12,48.65,20.61-48.68,1.29-3.06h32.45l-21.93-9.95c-23.44-10.64-127.6-55.32-128.65-55.77l-.61-.27-.53-.41-26.31-20.92,7.48,10.57,1.15,1.62-.28,1.96s-.02.19-.03.3c-.22,2.35-.12,10.1.02,15.96l6.29,4.75,1.7,1.28.26,2.12,1.37,11.52,1.15,9.7-8.54-4.74-.82-.45c.19,1.3.38,2.62.57,3.89l.9,6.06-6.12-.33c-9.96-.55-20.25-1.05-30.6-1.48l-3.05-.13-1.28-2.77c-2.99-6.46-10.62-20.7-12.94-25.01l-31.62-17.9-.76-.43-.57-.66-13.69-15.95-.9-1.05-.24-1.36-5.16-30.03-9.63-7.8-5.75,14.87-6.98,18.06-2.63-19.18-4.32-31.39-79.47,60.38-2.51,1.91-2.81-1.45-4.09-2.12-11.29,8.33,19.36,1.19,1.97.12,1.36,1.44,19.17,20.38,10.35,11-14.86-2.65-4.39-.78c5.17,4.59,10.62,9.42,13.89,12.29l9.75,8.56-12.97.2c-22.39.34-45.3.96-68.1,1.82l-5.26.19.07-5.26c.06-4.03-.02-9.34-.07-12.36l-37.65-29.07-29.86,20.92-7.14,5.01-.71-8.69-.68-8.42-70.05,46.21-1.06.7-1.26.11c-.42.03-42.56,3.7-63.9,5.83l-.68.07-.69.07-21.96,2.2,18.87-11.45c32.74-19.86,119.97-68.25,145.22-74.82,12.49-12.51,23.48-21.9,23.95-22.3l1.51-1.29,1.98.1,17.81.89,2.3.11,1.41,1.82.81,1.05,5.13-1.11,1.73-.37,1.57.79,11.08,5.58,8.24-.67,81.09-55.07,1.03-.7,1.24-.14,7.03-.76L716.77,2.89l4.46-2.89,2.61,4.64,4.95,8.81,8.73,6.45.3.22.26.26,49.23,49.07c1.8.02,4.6.04,7.66.04s5.7-.02,7.96-.07l2.15-.07,1.51,1.56c1.93,1.87,20.25,15.3,39.64,29.51,39.36,28.85,98.84,72.44,123.05,93.36l21.15,18.29h15.72Z" fill="#fff"/>
    <rect x="688.33" y="212.07" width="47.91" height="148.03" fill="#fff"/>
    <polygon points="507.79 297.8 495.79 297.8 501.93 275.65 507.79 297.8" fill="none"/>
    <path d="M621.93,317.05v-104.98h-47.91v142.94l-.61-1.66-51.32-138.02-1.22-3.26h-37.66l-1.21,3.26-51.52,138.02-2.51,6.75h51.15l1.08-3.56,7.09-23.46h29.34l7.27,23.49,1.09,3.53h159.54v-43.05h-62.6ZM495.79,297.8l6.14-22.15,5.86,22.15h-12Z" fill="#fff"/>
    <polygon points="507.79 297.8 495.79 297.8 501.93 275.65 507.79 297.8" fill="none"/>
    <path d="M447.56,212.07v75.96c0,10.02-1.31,19.55-3.9,28.34-2.65,8.99-6.84,16.9-12.46,23.5-5.64,6.63-12.81,11.92-21.31,15.71-8.45,3.77-18.45,5.68-29.74,5.68s-21.94-2.02-30.41-6.01c-8.49-4-15.58-9.47-21.09-16.25-5.47-6.72-9.51-14.61-12.01-23.46-2.45-8.63-3.69-17.89-3.69-27.51v-75.96h47.91v75.96c0,4.17.42,8.23,1.24,12.07.79,3.64,2.01,6.84,3.66,9.52,1.54,2.52,3.45,4.47,5.84,5.94,2.23,1.38,5.11,2.07,8.55,2.07s6.34-.72,8.63-2.15c2.47-1.55,4.42-3.52,5.97-6.05,1.64-2.68,2.87-5.86,3.65-9.44.83-3.79,1.25-7.81,1.25-11.96v-75.96h47.91Z" fill="#fff"/>
    <path d="M962.59,422.02h-3.08c.24-.77.49-1.54.74-2.28.31-.96.62-1.91.93-2.84.21.75.42,1.51.64,2.29.25.92.51,1.87.77,2.83h0Z" fill="none"/>
    <path d="M897.69,408.28c0,2.29-.79,3.22-1.47,3.77-1.33,1.06-3.16,1.58-5.59,1.58h-1.29v-10.69c.41-.01.84-.01,1.29-.01,1.84,0,4.31.25,5.69,1.45.59.51,1.37,1.48,1.37,3.9h0Z" fill="none"/>
    <path d="M722.03,441.07c-1.06.17-1.68.21-2,.21-2.61,0-4.47-.55-5.54-1.64-1.14-1.17-1.65-2.43-1.65-4.1,0-.77.14-1.41.43-1.97.14-.27.3-.52.48-.77l8.28,8.27h0Z" fill="none"/>
    <path d="M484.41,421.38c0,6.73-1.25,11.65-3.71,14.65-2.29,2.78-5.18,4.07-9.11,4.07s-6.87-1.3-9.2-4.1c-2.49-2.99-3.75-7.9-3.75-14.62s1.26-11.49,3.75-14.48c2.33-2.8,5.21-4.1,9.07-4.1s6.94,1.31,9.22,4.12c2.47,3.04,3.73,7.91,3.73,14.46h0Z" fill="none"/>
    <path d="M571.28,421.38c0,6.73-1.24,11.65-3.71,14.65-2.28,2.78-5.18,4.07-9.11,4.07s-6.86-1.3-9.19-4.1c-2.49-2.99-3.76-7.9-3.76-14.62s1.26-11.49,3.76-14.48c2.33-2.8,5.21-4.1,9.06-4.1s6.94,1.31,9.23,4.12c2.47,3.04,3.72,7.91,3.72,14.46h0Z" fill="none"/>
    <path d="M251.92,279.27s-.01.07-.01.1l-.02.2v.2c-.42,15.15-4.19,29.61-11.22,42.97l-.07.14c-11.29-8.55-24.86-15.24-40.35-15.24-19.38,0-39.12,10.6-58.67,31.5l-11.98,12.82c-6.11,3.41-12.09,7.69-17.92,12.9l-.43.38c-33.08-16.06-55.9-49.56-55.9-88.18,0-54.2,44.09-98.29,98.28-98.29,23.09,0,45.51,8.17,63.17,23.01.13.12.32.29.57.52,1.8,1.68,7.24,6.73,9.53,9.27,6.93,8.78,12.29,20.49,17.96,32.88.48,1.04.95,2.08,1.43,3.11,3.7,11.7,5.59,22.37,5.63,31.71h0Z" fill="none"/>
    <path d="M399.24,408.28c0,2.29-.79,3.22-1.48,3.77-1.32,1.06-3.15,1.58-5.58,1.58h-1.29v-10.69c.4-.01.84-.01,1.29-.01,1.84,0,4.31.25,5.69,1.46.59.5,1.37,1.47,1.37,3.89h0Z" fill="none"/>
    <polygon points="507.79 297.8 495.79 297.8 501.93 275.65 507.79 297.8" fill="none"/>
    <path d="M667.12,445.35c-.66-1.97-1.39-3.57-2.23-4.89l-1.47-2.32h-27.76v-46.89c0-5.89-1.62-10.13-4.82-12.61-2.85-2.2-6.94-3.27-12.49-3.27-2.16,0-4.41.17-6.7.51-2.13.32-3.68.56-4.74.74l-4.18.69v28.02c-1-3.42-2.35-6.58-4.05-9.47-4.14-7.05-9.85-12.48-16.97-16.14-6.97-3.58-14.84-5.4-23.38-5.4s-16.39,1.82-23.33,5.41c-7.06,3.66-12.74,9.08-16.88,16.13-1.24,2.1-2.29,4.35-3.16,6.74-.87-2.39-1.92-4.64-3.16-6.74-4.14-7.05-9.85-12.48-16.96-16.14-6.98-3.58-14.84-5.4-23.38-5.4s-16.4,1.82-23.33,5.41c-7.07,3.66-12.75,9.08-16.89,16.12-.18.32-.36.63-.53.95-1.85-5.23-5.08-9.71-9.65-13.38-7.3-5.86-17.64-8.84-30.71-8.84-3.4,0-7.3.26-11.59.76-1.94.23-3.77.52-5.5.87l8.54-10.93-29.61,21.96c-7.24,5.37-14.37,7.98-21.8,7.98-17.72,0-34.63-14.94-50.14-31.65l.95-1.4c17.3-25.38,26.06-54.01,26.06-85.11,0-38.88-17.79-71.02-37.02-99.97-1.66-2.49-6.69-8.94-11.28-14.8-.74-.94-1.45-1.84-1.73-2.21l-.03-.05-.2-.25c-21.36-27.25-71.38-91.08-76.56-141.86l-1.01-9.92-7.34,6.74c-61.51,56.44-97.14,106.91-123.16,143.76-3.29,4.67-6.41,9.08-9.36,13.2l-.17.24-.15.26c-.52.94-4.59,7.51-5.31,8.54-10.75,13.34-19.13,28.25-24.9,44.3-6,16.66-9.04,34.16-9.04,52.02,0,41.03,15.99,79.61,45,108.63,29.02,29.02,67.6,45,108.63,45,15.49,0,28.09-1.61,40.84-5.23l3.78-1.07c.53.79,1.06,1.58,1.61,2.39,7.94,11.93,17.94,22.1,28.9,29.4,12.2,8.13,25.34,12.43,38,12.43,21.12,0,40.89-11.79,57.18-34.1l11.24-15.4c7.64-6.05,15.29-13.89,22.91-23.49v55.77c0,5.5,1.5,9.61,4.45,12.21,2.8,2.47,7.01,3.67,12.87,3.67,2.3,0,4.59-.15,6.8-.44,2.26-.29,3.93-.59,5.13-.92l3.68-1v-23.33h2.6c7.61,0,14.36-1.34,20.06-4,4.74-2.21,8.69-5.18,11.77-8.86.76,6.87,2.65,12.97,5.63,18.2,4.05,7.12,9.7,12.58,16.79,16.25,6.93,3.59,14.87,5.41,23.59,5.41s16.65-1.82,23.59-5.41c7.08-3.66,12.74-9.12,16.84-16.23,1.19-2.06,2.21-4.27,3.05-6.6.84,2.32,1.84,4.52,3.01,6.58,4.05,7.12,9.7,12.58,16.79,16.25,6.94,3.59,14.87,5.41,23.59,5.41s16.66-1.82,23.59-5.41c7.08-3.66,12.75-9.12,16.84-16.23,1.66-2.88,2.99-6.02,3.97-9.41v11.9c0,5.11,1.6,9.3,4.74,12.44,3.14,3.15,7.33,4.74,12.45,4.74h35.38c3.87,0,7.15-1.39,9.5-4.03,2.23-2.52,3.36-6.06,3.36-10.53,0-2.37-.35-4.62-1.04-6.7h0ZM251.91,279.37l-.02.2v.2c-.42,15.15-4.19,29.61-11.22,42.97l-.07.14c-11.29-8.55-24.86-15.24-40.35-15.24-19.38,0-39.12,10.6-58.67,31.5l-11.98,12.82c-6.11,3.41-12.09,7.69-17.92,12.9l-.43.38c-33.08-16.06-55.9-49.56-55.9-88.18,0-54.2,44.09-98.29,98.28-98.29,23.09,0,45.51,8.17,63.17,23.01.13.12.32.29.57.52,1.8,1.68,7.24,6.73,9.53,9.27,6.93,8.78,12.29,20.49,17.96,32.88.48,1.04.95,2.08,1.43,3.11,3.7,11.7,5.59,22.37,5.63,31.71-.01.03-.01.07-.01.1h0ZM397.76,412.05c-1.32,1.06-3.15,1.58-5.58,1.58h-1.29v-10.69c.4-.01.84-.01,1.29-.01,1.84,0,4.31.25,5.69,1.46.59.5,1.37,1.47,1.37,3.89,0,2.29-.79,3.22-1.48,3.77h0ZM480.7,436.03c-2.29,2.78-5.18,4.07-9.11,4.07s-6.87-1.3-9.2-4.1c-2.49-2.99-3.75-7.9-3.75-14.62s1.26-11.49,3.75-14.48c2.33-2.8,5.21-4.1,9.07-4.1s6.94,1.31,9.22,4.12c2.47,3.04,3.73,7.91,3.73,14.46s-1.25,11.65-3.71,14.65h0ZM567.57,436.03c-2.28,2.78-5.18,4.07-9.11,4.07s-6.86-1.3-9.19-4.1c-2.49-2.99-3.76-7.9-3.76-14.62s1.26-11.49,3.76-14.48c2.33-2.8,5.21-4.1,9.06-4.1s6.94,1.31,9.23,4.12c2.47,3.04,3.72,7.91,3.72,14.46s-1.24,11.65-3.71,14.65h0Z" fill="#fff"/>
    <path d="M246.29,247.56c3.7,11.7,5.59,22.37,5.63,31.71-.01.03-.01.07-.01.1l-.02.2v.2c-.42,15.15-4.19,29.61-11.22,42.97l-.07.14c-11.29-8.55-24.86-15.24-40.35-15.24-19.38,0-39.12,10.6-58.67,31.5l-11.98,12.82c-6.11,3.41-12.09,7.69-17.92,12.9l-.43.38c-33.08-16.06-55.9-49.56-55.9-88.18,0-54.2,44.09-98.29,98.28-98.29,23.09,0,45.51,8.17,63.17,23.01.13.12.32.29.57.52,1.8,1.68,7.24,6.73,9.53,9.27,6.93,8.78,12.29,20.49,17.96,32.88.48,1.04.95,2.08,1.43,3.11h0Z" fill="none"/>
    <path d="M399.24,408.28c0,2.29-.79,3.22-1.48,3.77-1.32,1.06-3.15,1.58-5.58,1.58h-1.29v-10.69c.4-.01.84-.01,1.29-.01,1.84,0,4.31.25,5.69,1.46.59.5,1.37,1.47,1.37,3.89h0Z" fill="none"/>
    <path d="M480.68,406.92c2.47,3.04,3.73,7.91,3.73,14.46s-1.25,11.65-3.71,14.65c-2.29,2.78-5.18,4.07-9.11,4.07s-6.87-1.3-9.2-4.1c-2.49-2.99-3.75-7.9-3.75-14.62s1.26-11.49,3.75-14.48c2.33-2.8,5.21-4.1,9.07-4.1s6.94,1.31,9.22,4.12h0Z" fill="none"/>
    <path d="M571.28,421.38c0,6.73-1.24,11.65-3.71,14.65-2.28,2.78-5.18,4.07-9.11,4.07s-6.86-1.3-9.19-4.1c-2.49-2.99-3.76-7.9-3.76-14.62s1.26-11.49,3.76-14.48c2.33-2.8,5.21-4.1,9.06-4.1s6.94,1.31,9.23,4.12c2.47,3.04,3.72,7.91,3.72,14.46h0Z" fill="none"/>
    <path d="M251.92,279.27s-.01.07-.01.1l-.02.2v.2c-.42,15.15-4.19,29.61-11.22,42.97l-.07.14c-11.29-8.55-24.86-15.24-40.35-15.24-19.38,0-39.12,10.6-58.67,31.5l-11.98,12.82c-6.11,3.41-12.09,7.69-17.92,12.9l-.43.38c-33.08-16.06-55.9-49.56-55.9-88.18,0-54.2,44.09-98.29,98.28-98.29,23.09,0,45.51,8.17,63.17,23.01.13.12.32.29.57.52,1.8,1.68,7.24,6.73,9.53,9.27,6.93,8.78,12.29,20.49,17.96,32.88.48,1.04.95,2.08,1.43,3.11,3.7,11.7,5.59,22.37,5.63,31.71h0Z" fill="none"/>
    <path d="M399.24,408.28c0,2.29-.79,3.22-1.48,3.77-1.32,1.06-3.15,1.58-5.58,1.58h-1.29v-10.69c.4-.01.84-.01,1.29-.01,1.84,0,4.31.25,5.69,1.46.59.5,1.37,1.47,1.37,3.89h0Z" fill="none"/>
    <path d="M484.41,421.38c0,6.73-1.25,11.65-3.71,14.65-2.29,2.78-5.18,4.07-9.11,4.07s-6.87-1.3-9.2-4.1c-2.49-2.99-3.75-7.9-3.75-14.62s1.26-11.49,3.75-14.48c2.33-2.8,5.21-4.1,9.07-4.1s6.94,1.31,9.22,4.12c2.47,3.04,3.73,7.91,3.73,14.46h0Z" fill="none"/>
    <path d="M571.28,421.38c0,6.73-1.24,11.65-3.71,14.65-2.28,2.78-5.18,4.07-9.11,4.07s-6.86-1.3-9.19-4.1c-2.49-2.99-3.76-7.9-3.76-14.62s1.26-11.49,3.76-14.48c2.33-2.8,5.21-4.1,9.06-4.1s6.94,1.31,9.23,4.12c2.47,3.04,3.72,7.91,3.72,14.46h0Z" fill="none"/>
  </g>
  <g id="uuid-76cd15de-e7d7-44a5-bce3-6382f78b3998" data-name="Logo">
    <path d="M368.98,319.81c-3.05-1.88-5.54-4.4-7.48-7.58-1.94-3.17-3.37-6.87-4.28-11.08s-1.36-8.58-1.36-13.12v-70.95h-37.91v70.95c0,9.2,1.17,17.92,3.5,26.15,2.33,8.23,6.03,15.45,11.08,21.68s11.5,11.18,19.34,14.87,17.27,5.54,28.28,5.54,19.86-1.75,27.7-5.25c7.84-3.5,14.35-8.29,19.54-14.39,5.18-6.09,9.01-13.32,11.47-21.68,2.46-8.36,3.69-17.33,3.69-26.92v-70.95h-37.91v70.95c0,4.54-.46,8.88-1.36,13.02-.91,4.15-2.33,7.81-4.28,10.98-1.94,3.18-4.47,5.73-7.58,7.68-3.11,1.94-6.87,2.92-11.28,2.92s-8.13-.94-11.18-2.82h.02Z" fill="#005383"/>
    <path d="M475.41,355.1l8.16-27.02h36.74l8.36,27.02h40.05l-51.32-138.02h-30.71l-51.52,138.02h40.24ZM514.29,302.8h-25.08l12.83-46.27,12.25,46.27Z" fill="#005383"/>
    <path d="M679.53,355.1v-33.05h-62.6v-104.97h-37.91v138.02h100.51Z" fill="#005383"/>
    <path d="M731.24,355.1v-138.02h-37.91v138.02h37.91Z" fill="#005383"/>
    <path d="M862.45,217.07h-117.42v33.05h39.85v104.97h37.91v-104.97h39.66v-33.05h0Z" fill="#005383"/>
    <path d="M865.76,217.07l46.85,91.95v46.07h37.71v-45.68l47.63-92.34h-41.21l-25.27,59.68-24.69-59.68h-41.02Z" fill="#005383"/>
    <path d="M995.2,461.35c-2.1.79-4.59,1.18-7.47,1.18-4.28,0-7.25-.72-8.91-2.16s-2.88-3.65-3.67-6.62l-2.35-9.04h-23.73c-.31,1.11-.59,2.2-.85,3.28-.39,1.66-.79,3.23-1.18,4.72s-.77,2.93-1.11,4.32c-.35,1.4-.7,2.75-1.05,4.06-1.14.35-2.4.7-3.8,1.05-1.4.35-3.06.52-4.98.52-4.37,0-7.65-.77-9.83-2.29-2.18-1.53-3.28-3.65-3.28-6.36,0-1.22.17-2.44.52-3.67.35-1.22.74-2.66,1.18-4.32.7-2.79,1.75-6.4,3.14-10.81,1.4-4.41,2.95-9.17,4.65-14.28,1.7-5.11,3.41-10.11,5.11-15s3.25-9.28,4.65-13.17,2.44-6.75,3.14-8.58c1.48-.87,3.75-1.7,6.81-2.49,3.06-.79,6.07-1.18,9.04-1.18,4.37,0,8.26.63,11.66,1.9,3.41,1.27,5.55,3.3,6.42,6.09,1.57,4.46,3.25,9.68,5.04,15.66s3.62,12.23,5.5,18.74c1.88,6.51,3.69,12.84,5.44,19s3.28,11.68,4.59,16.58c-1.05,1.14-2.62,2.1-4.72,2.88h.04ZM964.14,408.87c-.79-2.84-1.53-5.44-2.23-7.8h-.79c-.79,2.45-1.66,5.11-2.62,7.99s-1.97,5.92-3.01,9.11c-.94,2.86-1.84,5.81-2.71,8.84h16.3c-.82-3.17-1.64-6.23-2.45-9.17-.87-3.14-1.7-6.14-2.49-8.98h0ZM910.03,433.05c-5.07,2.36-11.05,3.54-17.95,3.54h-7.6v24.5c-.96.26-2.45.52-4.46.79-2.01.26-4.06.39-6.16.39-4.54,0-7.73-.81-9.57-2.42-1.83-1.62-2.75-4.43-2.75-8.45v-62.11c0-1.83.52-3.25,1.57-4.26,1.05-1,2.4-1.81,4.06-2.42,2.97-1.05,6.51-1.81,10.61-2.29,4.11-.48,7.77-.72,11.01-.72,11.97,0,21.16,2.58,27.58,7.73,6.42,5.16,9.63,12.14,9.63,20.97,0,5.68-1.4,10.64-4.19,14.87-2.8,4.24-6.73,7.53-11.79,9.89h0ZM899.61,400.62c-2.05-1.79-5.04-2.69-8.98-2.69-1.4,0-2.56.02-3.47.07-.92.05-1.86.15-2.82.33v20.31h6.29c3.58,0,6.49-.89,8.71-2.69,2.23-1.79,3.34-4.34,3.34-7.67s-1.03-5.87-3.08-7.67h0ZM821.84,409.33l6.94,2.23c8.3,2.62,14.63,6.01,19,10.16s6.55,9.72,6.55,16.71c0,7.43-2.95,13.48-8.84,18.15-5.9,4.67-14.48,7.01-25.75,7.01-5.33,0-10.13-.57-14.41-1.7-4.28-1.13-7.69-2.84-10.22-5.11-2.53-2.27-3.8-5.02-3.8-8.25,0-2.53.74-4.69,2.23-6.49,1.48-1.79,3.1-3.17,4.85-4.13,2.44,1.92,5.44,3.58,8.98,4.98,3.54,1.4,7.4,2.1,11.6,2.1s7.29-.7,9.04-2.1,2.62-2.97,2.62-4.72-.7-3.12-2.1-4.13c-1.4-1-3.36-1.94-5.9-2.82l-5.5-1.83c-5.07-1.75-9.54-3.6-13.43-5.57s-6.92-4.52-9.11-7.67c-2.18-3.14-3.28-7.25-3.28-12.32,0-7.42,2.86-13.37,8.58-17.82,5.72-4.46,13.74-6.68,24.04-6.68,5.07,0,9.57.48,13.5,1.44s7.03,2.42,9.3,4.39c2.27,1.97,3.41,4.48,3.41,7.53,0,2.18-.52,4.11-1.57,5.77s-2.32,3.06-3.8,4.19c-1.92-1.22-4.5-2.29-7.73-3.21-3.23-.92-6.77-1.38-10.61-1.38s-6.81.55-8.65,1.64c-1.83,1.09-2.75,2.47-2.75,4.13,0,1.31.59,2.38,1.77,3.21s2.86,1.59,5.04,2.29h0ZM763.79,459.84c-2.1,2.14-4.59,3.21-7.47,3.21-3.49,0-6.9-1.66-10.22-4.98l-2.43-2.43c-3.09,2.47-6.61,4.29-10.54,5.44-5.07,1.48-9.87,2.23-14.41,2.23-6.81,0-12.58-1.16-17.3-3.47s-8.32-5.46-10.81-9.43-3.73-8.45-3.73-13.43c0-4.37.87-8.14,2.62-11.33,1.75-3.19,4.02-5.87,6.81-8.06,2.34-1.82,4.8-3.28,7.38-4.37-2.12-2.63-3.49-4.91-4.1-6.83-.79-2.49-1.18-4.74-1.18-6.75,0-3.67.96-7.03,2.88-10.09s4.69-5.48,8.32-7.27c3.62-1.79,8.06-2.69,13.3-2.69,5.5,0,9.39.98,11.66,2.95,2.27,1.97,3.41,4.48,3.41,7.53,0,1.4-.28,2.82-.85,4.26-.57,1.44-1.42,2.73-2.56,3.87-.96-.44-2.08-.79-3.34-1.05-1.27-.26-2.6-.39-4-.39-2.27,0-4.15.5-5.63,1.51-1.49,1.01-2.23,2.51-2.23,4.52,0,1.31.48,2.58,1.44,3.8s2.44,2.8,4.46,4.72l16.75,16.17c.51-2.13.85-4.4,1-6.81.22-3.45.33-6.44.33-8.98,1.66-.7,3.23-1.2,4.72-1.51,1.48-.31,2.93-.46,4.32-.46,4.11,0,6.81,1.14,8.12,3.41s1.97,5.2,1.97,8.78-.59,7.47-1.77,11.66c-.8,2.86-2.01,5.69-3.57,8.51l10.05,9.71c-.18,3.23-1.31,5.92-3.41,8.06h0ZM714.23,426.2c-.96.42-1.84.98-2.66,1.67-1.18,1.01-2.1,2.14-2.75,3.41-.66,1.27-.98,2.69-.98,4.26,0,2.97,1.03,5.5,3.08,7.6s5.09,3.14,9.11,3.14c1.4,0,3.49-.33,6.29-.98,1.65-.39,3.27-1.1,4.86-2.15l-16.95-16.95h0ZM655.3,461.61h-35.38c-3.76,0-6.73-1.09-8.91-3.28-2.18-2.18-3.28-5.15-3.28-8.91v-67.88c1.05-.17,2.6-.41,4.65-.72,2.05-.3,4.04-.46,5.96-.46,4.37,0,7.51.74,9.43,2.23,1.92,1.49,2.88,4.37,2.88,8.65v51.89h30.01c.61.96,1.18,2.23,1.7,3.8.52,1.57.79,3.28.79,5.11,0,3.23-.7,5.63-2.1,7.21-1.4,1.57-3.32,2.36-5.77,2.36h.02ZM579.63,458.73c-6.25,3.23-13.34,4.85-21.29,4.85s-15.05-1.62-21.29-4.85c-6.25-3.23-11.16-7.99-14.74-14.28s-5.37-13.98-5.37-23.06,1.83-16.75,5.5-23c3.67-6.24,8.63-10.98,14.87-14.22,6.24-3.23,13.25-4.85,21.03-4.85s14.81,1.62,21.1,4.85,11.27,7.97,14.94,14.22,5.5,13.91,5.5,23-1.81,16.77-5.44,23.06-8.56,11.05-14.81,14.28h0ZM571.44,403.76c-3.23-3.97-7.6-5.96-13.1-5.96s-9.63,1.97-12.91,5.9c-3.28,3.93-4.91,9.83-4.91,17.69s1.64,13.89,4.91,17.82c3.28,3.93,7.62,5.9,13.04,5.9s9.74-1.97,12.97-5.9,4.85-9.87,4.85-17.82-1.62-13.65-4.85-17.62h0ZM492.75,458.73c-6.25,3.23-13.34,4.85-21.29,4.85s-15.05-1.62-21.29-4.85c-6.25-3.23-11.16-7.99-14.74-14.28s-5.37-13.98-5.37-23.06,1.83-16.75,5.5-23c3.67-6.24,8.63-10.98,14.87-14.22,6.24-3.23,13.25-4.85,21.03-4.85s14.81,1.62,21.1,4.85,11.27,7.97,14.94,14.22,5.5,13.91,5.5,23-1.81,16.77-5.44,23.06-8.56,11.05-14.81,14.28h0ZM484.56,403.76c-3.23-3.97-7.6-5.96-13.1-5.96s-9.63,1.97-12.91,5.9c-3.28,3.93-4.91,9.83-4.91,17.69s1.64,13.89,4.91,17.82c3.28,3.93,7.62,5.9,13.04,5.9s9.74-1.97,12.97-5.9,4.85-9.87,4.85-17.82-1.62-13.65-4.85-17.62h0ZM411.57,433.05c-5.07,2.36-11.05,3.54-17.95,3.54h-7.6v24.5c-.96.26-2.45.52-4.46.79-2.01.26-4.06.39-6.16.39-4.54,0-7.73-.81-9.57-2.42-1.83-1.62-2.75-4.43-2.75-8.45v-62.11c0-1.83.52-3.25,1.57-4.26,1.05-1,2.4-1.81,4.06-2.42,2.97-1.05,6.51-1.81,10.61-2.29,4.11-.48,7.77-.72,11.01-.72,11.97,0,21.16,2.58,27.58,7.73,6.42,5.16,9.63,12.14,9.63,20.97,0,5.68-1.4,10.64-4.19,14.87-2.8,4.24-6.73,7.53-11.79,9.89h.01ZM401.16,400.62c-2.05-1.79-5.04-2.69-8.98-2.69-1.4,0-2.56.02-3.47.07-.92.05-1.86.15-2.82.33v20.31h6.29c3.58,0,6.49-.89,8.71-2.69,2.23-1.79,3.34-4.34,3.34-7.67s-1.03-5.87-3.08-7.67h.01Z" fill="#6ebede" fill-rule="evenodd"/>
    <path d="M789.33,103.66l-1.37,9.75,8.22,3.54,15.07,21.26s-.05.33-.07.54c-.37,3.96.07,18.95.07,18.95l8.22,6.2,1.37,11.52-9.59-5.32s1.04,7.54,1.97,13.86c-10.12-.55-20.34-1.04-30.67-1.48-3.64-7.86-13.76-26.56-13.76-26.56l-32.87-18.6-13.7-15.95-5.48-31.89-16.43-13.29-8.22,21.26-5.48-39.87-86.28,65.56-6.85-3.54-19.58,14.44,5.11,4.54,22.69,1.4,19.17,20.38-21.8-3.88s19.46,17.34,27.13,24.07c-22.33.35-45.06.95-68.21,1.82.08-6.11-.12-14.92-.12-14.92l-42.46-32.78-32.87,23.03-1.37-16.83-77.1,50.86s-42.34,3.68-63.97,5.84c-.47.05-.9.09-1.36.14,36.39-22.07,123.55-69.99,145.17-74.56,12.9-13.02,24.65-23.03,24.65-23.03l17.8.89,2.74,3.54,8.22-1.77,12.33,6.2,10.96-.89,82.17-55.81,8.22-.89,68.48-44.3,5.48,9.75,9.59,7.09,50.67,50.5s10.07.15,17.8,0c5,5.16,125.66,90.87,162.98,123.15-23.76-10.78-128.74-55.81-128.74-55.81l-47.94-38.1h.01Z" fill="#025282" fill-rule="evenodd"/>
    <path d="M145.24,342.56c48.99-52.39,86.2-25.93,112.52,3.36,26.32,29.29,59.61,73.38,97.41,45.34-64.09,82.08-106.65,8.78-118.4-8.4s-43.28-55.6-91.53-40.31h0Z" fill="#6dbede" fill-rule="evenodd"/>
    <path d="M253.07,162.86c.17.28.32.54.49.83,35.67,59.49,17.85,123.75-8.27,161.51-.07-.04-.13-.1-.2-.14,7.13-13.56,11.34-28.89,11.78-45.16.01-.11.04-.21.04-.33,0-50.06-49.19-118.93-79.75-159.33-.14-.22-10.1-8.61-10.1-8.61l-13.44-20.99-15.95,18.47-9.24,6.72-5.04,8.4-5.04,3.36-14.28-.84-2.52,7.56-10.92,6.72-5.88,7.56-3.36,1.68-7.56-3.36-12.6,14.28-6.72,2.52-7.56,11.76s-2.94-1.26-3.36-.84c25.61-35.69,62.73-92.78,131.84-156.19,5.17,50.62,53.11,113.19,77.6,144.44l.04-.02Z" fill="#6cbede" fill-rule="evenodd"/>
    <path d="M153.63,173.77c34.42,0,64.9,16.84,83.67,42.73-16.62-27.26-45.21-65.42-64.28-90.16-.6-.68-10.15-8.83-10.15-8.83l-9.24-15.95-10.92,11.76-9.24,7.56-4.2,7.56-2.52.84-5.88,5.04-12.6-.84-1.68,5.04-10.92,6.72-5.88,6.72-10.92,4.2-4.2-2.52-11.76,15.12-5.88,2.52-9.24,14.28s-8.79-1.51-9.92-1.75c-20.58,25.5-32.91,57.95-32.91,93.28,0,82.09,66.54,148.63,148.63,148.63,14.09,0,26.55-1.38,39.47-5.04-7.59-12.54-22.82-31.9-37.79-40.31-57-.05-104.96-46.27-104.96-103.29s46.24-103.28,103.28-103.28l.04-.03ZM168.75,135.99v-1.68l11.76,15.95,8.4,7.56s1.01,5.37.84,5.88c-5.71-2.52-11.08-3.69-16.79-3.36-.17-.34,0-10.08,0-10.08l-2.52,2.52v-10.08l-6.72-10.92,5.04,4.2h-.01ZM128.44,138.51l10.08-13.44,2.52-.84,5.04-6.72,4.2,15.95,1.68-7.56,1.68,15.11,5.04,4.2h-3.36l6.72,5.04-.84,10.92s3.86,5.71,5.04,8.4c-4.53-1.34-20.82-.34-26.03,1.68-.17-1.34,0-6.72,0-6.72l-8.4-6.72.84-5.04-5.88-4.2h5.04l-10.08-6.72,6.72-3.36v.02ZM93.17,158.66l5.04-7.56,7.56-5.04-2.52,5.04,10.08-7.56,7.56,14.28-2.52-.84.84,7.56-10.08,9.24,5.88-1.68-7.56,6.72s.84,1.85.84,1.68c-3.36.67-5.37,1.85-9.24,4.2l-5.04-5.88,1.68,5.04-5.04-5.88-2.52,2.52-1.68-15.11-5.88-3.36,12.6-3.36h0ZM72.18,184.69l-3.36-6.72-5.88,10.08-6.72-2.52,1.68-2.52,2.52-.84.84-5.04,14.27-11.76,2.52,5.04,3.36,2.52v4.2l-3.36,4.2-5.88,3.36h.01Z" fill="#065181" fill-rule="evenodd"/>
    <path d="M253.56,163.7c35.67,59.49,17.85,123.75-8.27,161.51,11.1,7.61,23.36,26.33,31.78,34.14,16.23-23.82,25.19-51.3,25.19-82.29,0-37.16-17.12-68.5-36.19-97.2-2.29-3.45-12.69-16.46-12.51-16.16h0Z" fill="#005383" fill-rule="evenodd"/>
    <path d="M115.01,368.59c47.48-42.34,96.13-14.01,116.72,20.99,17.74,30.16,55.81,64.85,88.17,41.99-40.3,55.21-90.89,29.96-115.88-7.56-29.1-43.69-45.97-59.6-89.01-55.42h0Z" fill="#025282" fill-rule="evenodd"/>
  </g>
</svg>